<svg xmlns="http://www.w3.org/2000/svg" xmlns:xlink="http://www.w3.org/1999/xlink" fill="none" version="1.1" width="44" height="44" viewBox="0 0 44 44"><defs><clipPath id="master_svg0_74_1039"><rect x="0" y="0" width="44" height="44" rx="0"/></clipPath></defs><g clip-path="url(#master_svg0_74_1039)"><path d="M36.422363437499996,22.0000004375Q36.422363437499996,22.726318437499998,35.8181154375,23.3519284375Q35.2138674375,23.9775394375,34.185424437500004,24.365112437500002Q33.156982437500005,24.7526854375,31.8935544375,24.7526854375L26.7238774375,24.7526854375Q26.2050784375,24.7526854375,25.9456784375,24.8717044375Q25.6862794375,24.9907224375,25.3688964375,25.3264164375L16.9521484375,34.2802734375Q16.5310058375,34.7197264375,15.9938964375,34.7197264375L14.193359337499999,34.7197264375Q13.955322237499999,34.7197264375,13.8363037375,34.530517437499995Q13.7172851375,34.341308437500004,13.8454589375,34.0849614375L18.2094724375,24.7709964375L11.8557129375,24.0751954375L9.5852050375,27.9753414375Q9.3288574375,28.4147944375,8.7490234375,28.4147944375L8.1691894575,28.4147944375Q7.9128417975,28.4147944375,7.7449951175,28.2530514375Q7.5771484375,28.0913084375,7.5771484375,27.8349614375L7.5771484375,16.1650390375Q7.5771484375,15.9025879375,7.7449951175,15.7408447375Q7.9128417975,15.5791015375,8.1691894575,15.5791015375L8.7490234375,15.5791015375Q9.3288574375,15.5791015375,9.5852050375,16.0246582375L11.8557129375,19.9248044375L18.2094724375,19.2229004375L13.8454589375,9.9089355475Q13.7172851375,9.6525878875,13.8363037375,9.4664306675Q13.955322237499999,9.2802734375,14.193359337499999,9.2802734375L15.9938964375,9.2802734375Q16.5310058375,9.2802734375,16.9521484375,9.7197265575L25.3688964375,18.661376937500002Q25.6862794375,18.9970703375,25.9456784375,19.1221923375Q26.2050784375,19.247314437500002,26.7238774375,19.247314437500002L31.8935544375,19.247314437500002Q33.156982437500005,19.247314437500002,34.185424437500004,19.6318354375Q35.2138674375,20.016357437499998,35.8181154375,20.6450194375Q36.422363437499996,21.273681437500002,36.422363437499996,22.0000004375Z" fill="#FFFFFF" fill-opacity="1" style="mix-blend-mode:passthrough"/></g></svg>