<svg xmlns="http://www.w3.org/2000/svg" xmlns:xlink="http://www.w3.org/1999/xlink" fill="none" version="1.1" width="44" height="44" viewBox="0 0 44 44"><defs><clipPath id="master_svg0_74_1043"><rect x="0" y="0" width="44" height="44" rx="0"/></clipPath></defs><g clip-path="url(#master_svg0_74_1043)"><path d="M9.267578125,22.207519937500003Q9.267578125,19.5891109375,10.256347655,17.2850341375Q11.245117225,14.9809570375,12.996826125,13.2231445375Q14.748535125,11.4653320375,17.055664025,10.4704589875Q19.362793125,9.4755859375,21.999512125000003,9.4755859375Q24.636230125,9.4755859375,26.940307125,10.4704589875Q29.244385125,11.4653320375,30.999145125,13.2231445375Q32.753906125,14.9809570375,33.742676125,17.2850341375Q34.731445125,19.5891109375,34.731445125,22.207519937500003Q34.731445125,24.7343749375,33.794556125,26.9743649375Q32.857666125,29.2143559375,31.246338125,30.9111329375Q31.069336125,31.1064449375,30.843506125,31.1003419375Q30.617676125,31.0942379375,30.446777125,30.8989259375L29.860840125,30.2397459375Q29.555664125,29.8796389375,29.873047125,29.5256349375Q31.215820125,28.0913089375,31.997070125,26.2053219375Q32.778320125,24.3193359375,32.778320125,22.207519937500003Q32.778320125,19.9980469375,31.936035125,18.0510254375Q31.093750125,16.1040039375,29.604492125,14.6177978375Q28.115234125,13.1315918375,26.165161125,12.2862548375Q24.215088125,11.4409179375,21.999512125000003,11.4409179375Q19.783935125,11.4409179375,17.830810525,12.2862548375Q15.877685525,13.1315918375,14.391479525000001,14.6177978375Q12.905273425,16.1040039375,12.062988325,18.0510254375Q11.220703125,19.9980469375,11.220703125,22.207519937500003Q11.220703125,24.3254399375,11.998901325,26.2053219375Q12.777099625,28.0852049375,14.125976524999999,29.5317379375Q14.431152325,29.8857419375,14.132080125,30.2336429375L13.546142625,30.8928219375Q13.375244125,31.0881349375,13.146362325,31.0942379375Q12.917480425,31.1003419375,12.740478525,30.9050289375Q11.135253925,29.2082519375,10.201416015,26.9682619375Q9.267578125,24.7282719375,9.267578125,22.207519937500003ZM12.819824225,22.207519937500003Q12.819824225,20.3154299375,13.533935525,18.6552734375Q14.248046925,16.9951171375,15.511474625,15.7316894375Q16.774902325,14.4682617375,18.438110325,13.748046837499999Q20.101318125,13.0278320375,21.999512125000003,13.0278320375Q23.891601125,13.0278320375,25.557861125,13.748046837499999Q27.224121125,14.4682617375,28.487549125,15.7316894375Q29.750976125,16.9951171375,30.465088125,18.6552734375Q31.179199125,20.3154299375,31.179199125,22.207519937500003Q31.179199125,23.9348149375,30.568848125,25.4698489375Q29.958496125,27.0048829375,28.896484125,28.2072749375Q28.725586125,28.4208979375,28.487549125,28.4178469375Q28.249512125,28.4147949375,28.072510125,28.2133789375L27.474365125,27.5480959375Q27.187500125,27.2185059375,27.468262125,26.8522949375Q28.286133125,25.9306639375,28.750000125,24.7404789375Q29.213867125,23.5502929375,29.213867125,22.207519937500003Q29.213867125,20.7304689375,28.649292125,19.4243164375Q28.084717125,18.1181640375,27.089844125,17.1232910375Q26.094971125,16.1284179375,24.788818125,15.5607910375Q23.482666125,14.9931640375,21.999512125000003,14.9931640375Q20.510254125,14.9931640375,19.204101525,15.5607910375Q17.897949224999998,16.1284179375,16.903076125,17.1232910375Q15.908203125,18.1181640375,15.346679725000001,19.4243164375Q14.785156225,20.7304689375,14.785156225,22.207519937500003Q14.785156225,23.5380859375,15.249023425,24.7313229375Q15.712890625,25.9245609375,16.524658225,26.8583979375Q16.799316425,27.2307129375,16.518554725,27.5480959375L15.926513625,28.2072749375Q15.749511725,28.4025879375,15.508422825,28.4086909375Q15.267334025,28.4147949375,15.096435525,28.2011719375Q14.034423825000001,26.9987789375,13.427124025000001,25.4637449375Q12.819824225,23.9287109375,12.819824225,22.207519937500003ZM16.372070325,22.207519937500003Q16.372070325,20.663329937500002,17.135009725,19.3846435375Q17.897949224999998,18.105957037499998,19.173584025,17.3430175375Q20.449219125,16.5800781375,21.999512125000003,16.5800781375Q23.549805125,16.5800781375,24.825439125000003,17.3430175375Q26.101074125,18.105957037499998,26.864014125,19.3846435375Q27.626953125,20.663329937500002,27.626953125,22.207519937500003Q27.626953125,23.1230469375,27.333984125,23.9409179375Q27.041016125,24.7587889375,26.522217125,25.4301759375Q26.369629125,25.6804199375,26.113281125,25.6865239375Q25.856933125,25.6926269375,25.667724125,25.4728999375L25.051269124999997,24.801513937499998Q24.801025125000002,24.5390629375,24.996338125,24.1911619375Q25.313721125,23.7761229375,25.487671125,23.2695309375Q25.661621125,22.7629399375,25.661621125,22.207519937500003Q25.661621125,21.2065429375,25.161133125,20.3764649375Q24.660644124999997,19.5463869375,23.830566125,19.0458984375Q23.000488125,18.5454101375,21.999512125000003,18.5454101375Q20.998535125,18.5454101375,20.168457125,19.0458984375Q19.338379125,19.5463869375,18.837890625,20.3764649375Q18.337402325,21.2065429375,18.337402325,22.207519937500003Q18.337402325,22.7568359375,18.511352525,23.263427937499998Q18.685302725,23.770019937500003,18.996582025000002,24.1850589375Q19.185791025,24.5329589375,18.941650425,24.7954099375L18.325195325,25.4606929375Q18.129882825,25.6804199375,17.876586924999998,25.6773679375Q17.623291025,25.6743159375,17.464599624999998,25.4301759375Q16.951904325,24.7526859375,16.661987325,23.9348149375Q16.372070325,23.1169429375,16.372070325,22.207519937500003ZM14.254150424999999,34.5244139375Q13.771972625,34.5244139375,13.619384725,34.1337889375Q13.466796925,33.7431639375,13.778076125,33.4013669375L21.407471125,24.7465819375Q21.639404125,24.484130937499998,21.993408125000002,24.484130937499998Q22.347412124999998,24.484130937499998,22.579346125,24.7465819375L30.214844125,33.4013669375Q30.520019125,33.7431639375,30.367432125,34.1337889375Q30.214844125,34.5244139375,29.732666125,34.5244139375L14.254150424999999,34.5244139375Z" fill="#FFFFFF" fill-opacity="1" style="mix-blend-mode:passthrough"/></g></svg>