<svg xmlns="http://www.w3.org/2000/svg" xmlns:xlink="http://www.w3.org/1999/xlink" fill="none" version="1.1" width="44" height="44" viewBox="0 0 44 44"><defs><clipPath id="master_svg0_74_1083"><rect x="0" y="0" width="44" height="44" rx="0"/></clipPath></defs><g clip-path="url(#master_svg0_74_1083)"><path d="M12.8564053,29.185734Q11.9015608,29.185734,11.33359241,28.667944Q10.765625,28.150156,10.765625,27.307373Q10.765625,26.673906,11.05372429,26.120314Q11.34182453,25.566719,11.802783999999999,25.073717000000002Q12.2637424,24.580717,12.7795782,24.123522Q13.2021246,23.759966,13.4271164,23.13201Q13.6521091,22.504053,13.775580399999999,21.710844Q13.8990517,20.917637,14.0142908,20.04731Q14.1569691,18.1744576,14.6508541,16.659647Q15.1447392,15.1448402,16.047451,14.092736200000001Q16.9501629,13.0406332,18.3110905,12.5503864Q18.6897373,11.4431992,19.603424099999998,10.72159958Q20.517110799999998,10,21.729874000000002,10Q22.953609,10,23.864553,10.72159958Q24.775497,11.4431992,25.159632000000002,12.5503864Q26.520557,13.0406332,27.420527,14.092736200000001Q28.320496,15.1448402,28.817123,16.659647Q29.313753,18.1744576,29.456429,20.04731Q29.571671,20.917637,29.695143,21.710844Q29.818611,22.504053,30.043604,23.13201Q30.268595,23.759966,30.691143,24.123522Q31.206978,24.580717,31.667938,25.073717000000002Q32.128899000000004,25.566719,32.416996,26.120314Q32.705096999999995,26.673906,32.705096999999995,27.307373Q32.705096999999995,28.150156,32.137131,28.667944Q31.56916,29.185734,30.608829,29.185734L12.8564053,29.185734ZM21.729874000000002,33.933968Q20.6982021,33.933968,19.883291200000002,33.50156Q19.068380400000002,33.069153,18.5717525,32.353062Q18.0751247,31.636971,18.0147591,30.783169L25.455961000000002,30.783169Q25.384622999999998,31.636971,24.89348,32.353062Q24.402340000000002,33.069153,23.584684,33.50156Q22.767032999999998,33.933968,21.729874000000002,33.933968Z" fill="#FFFFFF" fill-opacity="1" style="mix-blend-mode:passthrough"/></g></svg>