<svg xmlns="http://www.w3.org/2000/svg" xmlns:xlink="http://www.w3.org/1999/xlink" fill="none" version="1.1" width="44" height="44" viewBox="0 0 44 44"><defs><clipPath id="master_svg0_74_1047"><rect x="0" y="0" width="44" height="44" rx="0"/></clipPath></defs><g clip-path="url(#master_svg0_74_1047)"><path d="M22.0002441875,34.872131378906246Q19.5344237875,34.872131378906246,17.3798827875,33.94744837890625Q15.2253417875,33.022766378906255,13.5895995875,31.38702437890625Q11.9538573875,29.75128137890625,11.0291748075,27.59674037890625Q10.1044921875,25.44219937890625,10.1044921875,22.976379378906252Q10.1044921875,20.51666237890625,11.0291748075,18.35906977890625Q11.9538573875,16.20147707890625,13.5895995875,14.56573487890625Q15.2253417875,12.929992678906249,17.3798827875,12.00225827890625Q19.5344237875,11.07452387890625,22.0002441875,11.07452387890625Q24.466064187500002,11.07452387890625,26.6236571875,12.00225827890625Q28.7812501875,12.929992678906249,30.4169921875,14.56573487890625Q32.0527341875,16.20147707890625,32.9743651875,18.35906977890625Q33.8959961875,20.51666237890625,33.8959961875,22.976379378906252Q33.8959961875,25.44219937890625,32.9743651875,27.59674037890625Q32.0527341875,29.75128137890625,30.4169921875,31.38702437890625Q28.7812501875,33.022766378906255,26.6236571875,33.94744837890625Q24.466064187500002,34.872131378906246,22.0002441875,34.872131378906246ZM17.099121087500002,24.74639937890625L21.9941401875,24.74639937890625Q22.4702151875,24.74639937890625,22.7906491875,24.42291237890625Q23.111084187499998,24.09942637890625,23.111084187499998,23.63555937890625L23.111084187499998,17.00714107890625Q23.111084187499998,16.53717037890625,22.7906491875,16.21673587890625Q22.4702151875,15.89630127890625,21.9941401875,15.89630127890625Q21.524170187499998,15.89630127890625,21.2037351875,16.21673587890625Q20.883301187500003,16.53717037890625,20.883301187500003,17.00714107890625L20.883301187500003,22.524719378906248L17.099121087500002,22.524719378906248Q16.6291503875,22.524719378906248,16.3056640875,22.84515337890625Q15.9821776875,23.16558837890625,15.9821776875,23.63555937890625Q15.9821776875,24.09942637890625,16.3056640875,24.42291237890625Q16.6291503875,24.74639937890625,17.099121087500002,24.74639937890625ZM11.5327148875,14.248352078906251Q11.2824706875,14.248352078906251,11.0871582075,14.101867678906249Q10.8918457075,13.95538327890625,10.7880859375,13.71734617890625Q10.6782226575,13.46099857890625,10.6141357375,13.113098178906249Q10.5500488275,12.76519777890625,10.5500488275,12.344055178906249Q10.5500488275,11.330871578906251,11.0596923875,10.50994877890625Q11.5693359875,9.68902587890625,12.4268798875,9.20074462890625Q13.2844237875,8.71246337890625,14.3159179875,8.71246337890625Q14.9812011875,8.71246337890625,15.5915526875,8.90472411890625Q16.2019042875,9.09698485890625,16.6596679875,9.45098876890625Q17.0441894875,9.756164578906251,17.0441894875,10.18341067890625Q17.0441894875,10.53131107890625,16.7207030875,10.76934817890625L12.0454101875,14.053039578906251Q11.8989257875,14.156799278906249,11.7860107875,14.20257567890625Q11.6730956875,14.248352078906251,11.5327148875,14.248352078906251ZM32.479980187500004,14.248352078906251Q32.327392187499996,14.248352078906251,32.2144771875,14.20257567890625Q32.1015621875,14.156799278906249,31.9611811875,14.053039578906251L27.2919921875,10.76934817890625Q26.9562991875,10.537414578906251,26.9562991875,10.18341067890625Q26.9562991875,9.756164578906251,27.3408201875,9.45098876890625Q27.7985841875,9.09698485890625,28.4089351875,8.90472411890625Q29.0192871875,8.71246337890625,29.6845701875,8.71246337890625Q30.7221681875,8.71246337890625,31.5797121875,9.20074462890625Q32.4372561875,9.68902587890625,32.9438471875,10.50994877890625Q33.450439187499995,11.330871578906251,33.450439187499995,12.344055178906249Q33.450439187499995,12.76519777890625,33.3924561875,13.11614987890625Q33.3344721875,13.467102078906251,33.2246091875,13.71734617890625Q33.1147461875,13.94927977890625,32.919433187500005,14.098815878906251Q32.7241211875,14.248352078906251,32.479980187500004,14.248352078906251ZM11.5083007875,34.92095937890625Q11.148193387500001,34.56695537890625,11.1451415875,34.06341537890625Q11.1420898875,33.55987537890625,11.5144042875,33.19366437890625L14.1572265875,30.55084237890625L15.9150390875,32.29644737890625L13.308837887500001,34.88433837890625Q12.9304198875,35.27496337890625,12.4085692875,35.287170378906254Q11.8867187875,35.29937737890625,11.5083007875,34.92095937890625ZM32.4921871875,34.92095937890625Q32.1137691875,35.29937737890625,31.5949711875,35.28411837890625Q31.0761721875,35.26885937890625,30.6916501875,34.88433837890625L28.0915531875,32.29644737890625L29.8432621875,30.55084237890625L32.4860841875,33.19366437890625Q32.8645021875,33.55987537890625,32.8583981875,34.06341537890625Q32.852295187500005,34.56695537890625,32.4921871875,34.92095937890625Z" fill="#FFFFFF" fill-opacity="1" style="mix-blend-mode:passthrough"/></g></svg>