<svg xmlns="http://www.w3.org/2000/svg" xmlns:xlink="http://www.w3.org/1999/xlink" fill="none" version="1.1" width="44" height="44" viewBox="0 0 44 44"><defs><clipPath id="master_svg0_74_1051"><rect x="0" y="0" width="44" height="44" rx="0"/></clipPath></defs><g clip-path="url(#master_svg0_74_1051)"><path d="M8.0439453125,19.21424671640625Q8.0439453125,16.83387561640625,8.8404541025,14.65797141640625Q9.6369629125,12.48206801640625,11.0773926125,10.95008563640625Q11.5839844125,10.40687274940625,12.1577148125,10.43128681180625Q12.7314453125,10.45570087440625,13.097656212499999,10.89515399640625Q13.4516601125,11.30408954640625,13.3723144125,11.78626731640625Q13.292968712499999,12.26844501640625,12.9084473125,12.69569111640625Q11.7670898125,13.95301531640625,11.1628418125,15.63758561640625Q10.5585937125,17.32215501640625,10.5585937125,19.21424671640625Q10.5585937125,21.11243781640625,11.1658935125,22.80005981640625Q11.7731933125,24.48768281640625,12.9084473125,25.745008816406248Q13.2868652125,26.17225481640625,13.3662109125,26.65443081640625Q13.445556612499999,27.13660781640625,13.097656212499999,27.54554381640625Q12.7375488125,27.99109981640625,12.1638183125,28.00941081640625Q11.5900879125,28.02772181640625,11.0773926125,27.49061181640625Q9.5759277125,25.92201081640625,8.8099365225,23.76441781640625Q8.0439453125,21.60682281640625,8.0439453125,19.21424671640625ZM13.4516601125,19.21424671640625Q13.4516601125,17.84095571640625,13.857543912499999,16.601942016406248Q14.2634277125,15.36292741640625,15.0324707125,14.47791771640625Q15.490234412500001,13.95911881640625,16.0914307125,13.96522231640625Q16.6926269125,13.97132591640625,17.0466308125,14.41688251640625Q17.3701172125,14.81971451640625,17.2938232125,15.28358171640625Q17.217529312499998,15.747448916406249,16.9001465125,16.19911001640625Q16.4851074125,16.76673511640625,16.2257080125,17.58155631640625Q15.9663086125,18.39637561640625,15.9663086125,19.21424671640625Q15.9663086125,20.03211781640625,16.2196045125,20.84998681640625Q16.4729004125,21.66785781640625,16.9001465125,22.229383816406248Q17.2236328125,22.67493781640625,17.2968750125,23.14185681640625Q17.3701172125,23.60877581640625,17.0466308125,24.01771381640625Q16.6926269125,24.46326781640625,16.0914307125,24.46326781640625Q15.490234412500001,24.46326781640625,15.0324707125,23.95057281640625Q14.2634277125,23.06556281640625,13.857543912499999,21.82960081640625Q13.4516601125,20.59364081640625,13.4516601125,19.21424671640625ZM19.3598633125,19.21424671640625Q19.3598633125,18.48182301640625,19.7169193125,17.88062671640625Q20.0739743125,17.27943041640625,20.6721193125,16.91932301640625Q21.2702633125,16.55921741640625,22.0087893125,16.55921741640625Q22.7412113125,16.55921741640625,23.3393553125,16.91932301640625Q23.9375003125,17.27943041640625,24.2945553125,17.88062671640625Q24.6516113125,18.48182301640625,24.6516113125,19.21424671640625Q24.6516113125,19.96497721640625,24.2670903125,20.58143281640625Q23.8825683125,21.19788981640625,23.2783203125,21.52747681640625L23.2783203125,32.14149081640625Q23.2783203125,32.794566816406245,22.9365233125,33.182140816406246Q22.5947263125,33.56971381640625,22.0087893125,33.56971381640625Q21.4472653125,33.56971381640625,21.093261312499997,33.16993381640625Q20.7392573125,32.77015281640625,20.7392573125,32.14149081640625L20.7392573125,21.52747681640625Q20.1228023125,21.19788981640625,19.7413333125,20.58143281640625Q19.3598633125,19.96497721640625,19.3598633125,19.21424671640625ZM26.9526363125,24.01771381640625Q26.6291503125,23.60877581640625,26.7023923125,23.14185681640625Q26.7756343125,22.67493781640625,27.0991213125,22.229383816406248Q27.5263673125,21.66785781640625,27.7796633125,20.84998681640625Q28.0329593125,20.03211781640625,28.0329593125,19.21424671640625Q28.0329593125,18.39637561640625,27.7735593125,17.58155631640625Q27.5141603125,16.76673511640625,27.0991213125,16.19911001640625Q26.7817383125,15.747448916406249,26.7054443125,15.28358171640625Q26.6291503125,14.81971451640625,26.9526363125,14.41688251640625Q27.3066403125,13.97132591640625,27.9078373125,13.96522231640625Q28.5090333125,13.95911881640625,28.9667973125,14.47791771640625Q29.7358403125,15.36292741640625,30.1417233125,16.601942016406248Q30.5476073125,17.84095571640625,30.5476073125,19.21424671640625Q30.5476073125,20.59364081640625,30.1417233125,21.82960081640625Q29.7358403125,23.06556281640625,28.9667973125,23.95057281640625Q28.5090333125,24.46326781640625,27.9078373125,24.46326781640625Q27.3066403125,24.46326781640625,26.9526363125,24.01771381640625ZM30.9016113125,27.54554381640625Q30.5537113125,27.13660781640625,30.6330563125,26.65443081640625Q30.7124023125,26.17225481640625,31.0908203125,25.745008816406248Q32.2260743125,24.48768281640625,32.8333743125,22.80005981640625Q33.4406743125,21.11243781640625,33.4406743125,19.21424671640625Q33.4406743125,17.32215501640625,32.8364253125,15.63758561640625Q32.2321773125,13.95301531640625,31.0908203125,12.69569111640625Q30.7062993125,12.26844501640625,30.6269533125,11.78626731640625Q30.5476073125,11.30408954640625,30.9016113125,10.89515399640625Q31.2678223125,10.45570087440625,31.8446043125,10.43128681180625Q32.421386312500005,10.40687274940625,32.9218753125,10.95008563640625Q34.3623043125,12.48206801640625,35.1588133125,14.65797141640625Q35.9553223125,16.83387561640625,35.9553223125,19.21424671640625Q35.9553223125,21.60682281640625,35.1893313125,23.76441781640625Q34.4233403125,25.92201081640625,32.9218753125,27.49061181640625Q32.4152833125,28.02772181640625,31.8385013125,28.00941081640625Q31.2617183125,27.99109981640625,30.9016113125,27.54554381640625Z" fill="#FFFFFF" fill-opacity="1" style="mix-blend-mode:passthrough"/></g></svg>