<svg xmlns="http://www.w3.org/2000/svg" xmlns:xlink="http://www.w3.org/1999/xlink" fill="none" version="1.1" width="44" height="44" viewBox="0 0 44 44"><defs><clipPath id="master_svg0_74_1079"><rect x="0" y="0" width="44" height="44" rx="0"/></clipPath></defs><g clip-path="url(#master_svg0_74_1079)"><path d="M9.667724637500001,26.141357218750002Q9.2099609375,26.141357218750002,8.910888637500001,26.058960218750002Q8.6118164375,25.97656221875,8.4104004375,25.775146218750002Q8.208984337499999,25.57373021875,8.129638637500001,25.277710218750002Q8.0502929375,24.98168921875,8.0502929375,24.51782221875L8.0502929375,19.49462891875Q8.0502929375,19.024658218749998,8.129638637500001,18.72253421875Q8.208984337499999,18.42041011875,8.4104004375,18.21899411875Q8.6057129375,18.017578118750002,8.9078369375,17.93823241875Q9.2099609375,17.85888671875,9.6860351375,17.85888671875L29.7788084375,17.85888671875Q30.2426754375,17.85888671875,30.5417484375,17.93823241875Q30.8408204375,18.017578118750002,31.0422364375,18.21899411875Q31.2436524375,18.42041011875,31.3229984375,18.71948241875Q31.4023434375,19.01855471875,31.4023434375,19.48242191875L31.4023434375,24.51782221875Q31.4023434375,25.408935218750003,31.0422364375,25.775146218750002Q30.8408204375,25.97656221875,30.5417484375,26.058960218750002Q30.2426754375,26.141357218750002,29.7788084375,26.141357218750002L9.667724637500001,26.141357218750002ZM10.1865234375,31.02417021875Q8.3432617375,31.02417021875,7.021850537500001,30.70373521875Q5.7004394375,30.38330121875,4.7360839375,29.43115221875Q3.7839355475,28.485107218750002,3.4696044875,27.16674821875Q3.1552734375,25.84838821875,3.1552734375,23.99292021875L3.1552734375,19.98901371875Q3.1552734375,18.15185541875,3.4726562475,16.83959961875Q3.7900390575,15.52734371875,4.7360839375,14.56909181875Q5.6943359375,13.61694335875,7.0187988375,13.29650878875Q8.3432617375,12.97607421875,10.1743164375,12.97607421875L29.2600094375,12.97607421875Q31.1032714375,12.97607421875,32.4277344375,13.29345702875Q33.7521974375,13.61083983875,34.7104494375,14.56909181875Q35.6625974375,15.51513671875,35.9799804375,16.83349611875Q36.2973634375,18.15185541875,36.2973634375,20.00732421875L36.2973634375,23.99292021875Q36.2973634375,25.84838821875,35.9799804375,27.163696218749998Q35.6625974375,28.47900421875,34.7104494375,29.43115221875Q33.7583004375,30.38330121875,32.430786437500004,30.70373521875Q31.1032714375,31.02417021875,29.2600094375,31.02417021875L10.1865234375,31.02417021875ZM9.8508300375,27.87475621875L29.6018064375,27.87475621875Q30.5600584375,27.87475621875,31.2680664375,27.71606421875Q31.9760744375,27.55737321875,32.4033204375,27.12402321875Q32.8366694375,26.68457021875,32.9923094375,25.991821218749998Q33.1479494375,25.29907221875,33.1479494375,24.32861321875L33.1479494375,19.65942381875Q33.1479494375,18.69506831875,32.9923094375,18.00231931875Q32.8366694375,17.309570318749998,32.4033204375,16.876220718749998Q31.9699704375,16.44897461875,31.2650144375,16.28723141875Q30.5600584375,16.12548831875,29.6018064375,16.12548831875L9.8691406375,16.12548831875Q8.898681637500001,16.12548831875,8.1845703375,16.281127918750002Q7.4704589375,16.43676761875,7.0432129375,16.876220718749998Q6.6159668375,17.309570318749998,6.4603271375,18.00537111875Q6.3046875374999996,18.70117191875,6.3046875374999996,19.67773441875L6.3046875374999996,24.32861321875Q6.3046875374999996,25.29907221875,6.4572754375,25.99487321875Q6.6098632375,26.69067421875,7.0432129375,27.12402321875Q7.4826660375,27.55126921875,8.187622037499999,27.713012218750002Q8.8925781375,27.87475621875,9.8508300375,27.87475621875ZM38.2749024375,25.58593721875L38.2749024375,18.41430661875Q38.8242184375,18.44482421875,39.4223634375,18.89953611875Q40.0205074375,19.35424801875,40.4324954375,20.14770511875Q40.8444824375,20.94116211875,40.8444824375,21.997070318749998Q40.8444824375,23.05908221875,40.4324954375,23.84948721875Q40.0205074375,24.63989221875,39.4223634375,25.09460421875Q38.8242184375,25.54931621875,38.2749024375,25.58593721875Z" fill="#FFFFFF" fill-opacity="1" style="mix-blend-mode:passthrough"/></g></svg>