<svg xmlns="http://www.w3.org/2000/svg" xmlns:xlink="http://www.w3.org/1999/xlink" fill="none" version="1.1" width="44" height="44" viewBox="0 0 44 44"><defs><clipPath id="master_svg0_74_1094"><rect x="0" y="0" width="44" height="44" rx="0"/></clipPath></defs><g clip-path="url(#master_svg0_74_1094)"><path d="M23.8907299,22.499434L29.608688,16.9198666C30.119791,16.447021499999998,30.119791,15.627426100000001,29.608688,15.1545801L22.900466899999998,8.4086628C22.549085599999998,7.9988636971,22.006038699999998,7.904294968,21.526880300000002,8.093432426C21.0477219,8.28257084,20.728281,8.75541496,20.728281,9.2597828L20.728281,19.378658L16.1922474,14.9654408C15.681143800000001,14.461073899999999,14.88254642,14.492596599999999,14.37144375,14.9654408C13.86034203,15.4698095,13.89228535,16.2578831,14.37144375,16.762250899999998L20.2810688,22.499434L14.40338898,28.268137C13.8922863,28.772503,13.8922863,29.560577,14.40338898,30.064947C14.65894032,30.317133,14.97837925,30.443222,15.2978182,30.443222C15.6172571,30.443222,15.9366961,30.317127,16.1922474,30.064947L20.728281,25.620207L20.728281,35.739079000000004C20.7326393,36.433681,21.302166,36.995708,22.006038699999998,37C22.357419999999998,37,22.6768608,36.873909,22.9324112,36.621727L29.640635,29.875807C30.119791,29.371443,30.119791,28.583366,29.640635,28.110523L23.8907299,22.499434ZM23.283794399999998,12.3490353L26.893456999999998,16.005699200000002L23.283794399999998,19.536272L23.283794399999998,12.3490353ZM23.283794399999998,32.64983L23.283794399999998,25.462593L26.893456999999998,29.024687L23.283794399999998,32.64983Z" fill="#FFFFFF" fill-opacity="1" style="mix-blend-mode:passthrough"/></g></svg>