<svg xmlns="http://www.w3.org/2000/svg" xmlns:xlink="http://www.w3.org/1999/xlink" fill="none" version="1.1" width="44" height="44" viewBox="0 0 44 44"><defs><clipPath id="master_svg0_74_1098"><rect x="0" y="0" width="44" height="44" rx="0"/></clipPath></defs><g clip-path="url(#master_svg0_74_1098)"><path d="M11.7998046875,31.77509465625L11.7998046875,12.225096656249999Q11.7998046875,12.12076565625,11.8049240112,12.01655955625Q11.8100433345,11.91235355625,11.8202695845,11.80852415625Q11.8304958345,11.70469475625,11.8458042145,11.60149195625Q11.8611135485,11.49829005625,11.8814668655,11.39596275625Q11.9018211375,11.29363635625,11.9271717075,11.19243145625Q11.9525222775,11.09122655625,11.9828081175,10.99138735625Q12.0130939475,10.89154815625,12.0482425675,10.79331495625Q12.0833902375,10.69508175625,12.1233167675,10.59869285625Q12.1632423375,10.50230315625,12.2078504575,10.40798755625Q12.2524576175,10.31367305625,12.3016395575,10.22166065625Q12.3508205375,10.12964825625,12.4044580475,10.04016115625Q12.4580955475,9.95067215625,12.5160589175,9.86392405625Q12.574022297500001,9.77717495625,12.6361722975,9.69337555625Q12.6983232475,9.60957525625,12.7645101575,9.52892585625Q12.830697087499999,9.44827655625,12.900762587500001,9.37097165625Q12.9708270875,9.29366685625,13.0446004875,9.21989345625Q13.1183738875,9.14612005625,13.1956786875,9.076055556250001Q13.2729835875,9.005990056249999,13.3536328875,8.93980312625Q13.4342822875,8.87361621625,13.5180825875,8.81146526625Q13.6018819875,8.749315266250001,13.6886310875,8.69135188625Q13.7753791875,8.63338851625,13.8648681875,8.57975101625Q13.9543552875,8.52611350625,14.0463676875,8.47693252625Q14.1383800875,8.42775058625,14.2326945875,8.38314342625Q14.3270101875,8.33853530625,14.4233998875,8.29860973625Q14.5197887875,8.25868320625,14.6180219875,8.22353553625Q14.7162551875,8.18838691625,14.8160943875,8.15810108625Q14.9159335875,8.12781524625,15.0171384875,8.10246467625Q15.1183433875,8.07711410625,15.2206697875,8.05675983425Q15.3229970875,8.03640651725,15.4261989875,8.02109718325Q15.5294017875,8.00578880325,15.6332311875,7.99556255325Q15.7370605875,7.98533630325,15.8412665875,7.98021697995Q15.9454726875,7.97509765625,16.0498046875,7.97509765625L27.9498026875,7.97509765625Q28.0541346875,7.97509765625,28.1583406875,7.98021697995Q28.2625466875,7.98533630325,28.3663746875,7.99556255325Q28.4702036875,8.00578880325,28.5734066875,8.02109718325Q28.6766066875,8.03640651725,28.7789346875,8.05675983425Q28.8812596875,8.07711410625,28.9824656875,8.10246467625Q29.0836716875,8.12781524625,29.1835116875,8.15810108625Q29.2833496875,8.18838691625,29.3815826875,8.22353553625Q29.4798146875,8.25868320625,29.5762046875,8.29860973625Q29.6725916875,8.33853530625,29.7669066875,8.38314342625Q29.8612236875,8.42775058625,29.9532376875,8.47693252625Q30.0452496875,8.52611350625,30.1347366875,8.57975101625Q30.2242236875,8.63338851625,30.3109736875,8.69135188625Q30.3977226875,8.749315266250001,30.4815216875,8.81146526625Q30.5653226875,8.87361621625,30.6459736875,8.93980312625Q30.7266216875,9.005990056249999,30.8039266875,9.076055556250001Q30.8812316875,9.14612005625,30.9550056875,9.21989345625Q31.0287776875,9.29366685625,31.0988426875,9.37097165625Q31.1689066875,9.44827655625,31.2350956875,9.52892585625Q31.3012806875,9.60957525625,31.3634316875,9.69337555625Q31.4255826875,9.77717495625,31.4835456875,9.86392405625Q31.5415096875,9.95067215625,31.5951456875,10.04016115625Q31.6487846875,10.12964825625,31.6979656875,10.22166065625Q31.7471466875,10.31367305625,31.7917556875,10.40798755625Q31.8363606875,10.50230315625,31.8762876875,10.59869285625Q31.9162136875,10.69508175625,31.9513606875,10.79331495625Q31.9865096875,10.89154815625,32.0167956875,10.99138735625Q32.0470806875,11.09122655625,32.072433687499995,11.19243145625Q32.0977816875,11.29363635625,32.118137687499996,11.39596275625Q32.138492687500005,11.49829005625,32.153800687499995,11.60149195625Q32.169112687500004,11.70469475625,32.1793406875,11.80852415625Q32.1895636875,11.91235355625,32.1946826875,12.01655955625Q32.1998026875,12.12076565625,32.1998026875,12.225096656249999L32.1998026875,31.77509465625Q32.1998026875,31.87942665625,32.1946826875,31.98363265625Q32.1895636875,32.087840656249995,32.1793406875,32.19166965625Q32.169112687500004,32.29549765625,32.153800687499995,32.39870065625Q32.138492687500005,32.50189965625,32.118137687499996,32.60422565625Q32.0977816875,32.70655465625,32.072433687499995,32.80775865625Q32.0470806875,32.908965656250004,32.0167956875,33.00880465625Q31.9865096875,33.10864265625,31.9513626875,33.20687465625Q31.9162136875,33.305106656250004,31.8762876875,33.40149665625Q31.8363606875,33.49788665625,31.7917556875,33.59220165625Q31.7471466875,33.686511656250005,31.6979656875,33.77852665625Q31.6487846875,33.870536656249996,31.5951476875,33.96002565625Q31.5415116875,34.04951465625,31.4835476875,34.13626465625Q31.4255826875,34.22301065625,31.3634336875,34.30681265625Q31.3012806875,34.39061365625,31.2350956875,34.47126365625Q31.1689066875,34.55191465625,31.0988426875,34.62921865625Q31.0287776875,34.70652365625,30.9550056875,34.78029665625Q30.8812316875,34.85406865625,30.8039266875,34.92413665625Q30.7266216875,34.99420165625,30.6459736875,35.06039065625Q30.5653226875,35.12657565625,30.4815216875,35.18872465625Q30.3977226875,35.25087365625,30.3109736875,35.30883765625Q30.2242256875,35.36680265625,30.1347386875,35.420436656250004Q30.0452496875,35.47407565625,29.9532396875,35.52325865625Q29.8612246875,35.572440656249995,29.7669106875,35.61704665625Q29.6725956875,35.661655656250005,29.5762066875,35.701579656250004Q29.4798166875,35.741508656250005,29.3815836875,35.77665665625Q29.2833516875,35.81180165625,29.1835136875,35.84209065625Q29.0836736875,35.87237565625,28.9824676875,35.89772365625Q28.8812636875,35.923076656250004,28.7789366875,35.94342765625Q28.6766086875,35.96378365625,28.5734066875,35.979095656249996Q28.4702036875,35.99440365625,28.3663746875,36.00463065625Q28.2625466875,36.01485865625,28.1583406875,36.01997365625Q28.0541346875,36.025092656249996,27.9498026875,36.025092656249996L16.0498046875,36.025092656249996Q15.9454726875,36.025092656249996,15.8412665875,36.01997365625Q15.7370605875,36.01485865625,15.6332311875,36.00463065625Q15.5294017875,35.99440365625,15.4261989875,35.979095656249996Q15.3229970875,35.96378365625,15.2206697875,35.94342765625Q15.1183433875,35.923076656250004,15.0171384875,35.89772365625Q14.9159335875,35.87237565625,14.8160943875,35.84209065625Q14.7162551875,35.81180165625,14.6180219875,35.77665665625Q14.5197887875,35.741508656250005,14.4233998875,35.701579656250004Q14.3270101875,35.661655656250005,14.2326945875,35.61704665625Q14.1383800875,35.572440656249995,14.0463676875,35.52325865625Q13.9543552875,35.47407565625,13.8648681875,35.420436656250004Q13.7753791875,35.36680265625,13.6886310875,35.30883765625Q13.6018819875,35.25087365625,13.5180825875,35.18872465625Q13.4342822875,35.12657565625,13.3536328875,35.06039065625Q13.2729835875,34.99420165625,13.1956786875,34.92413665625Q13.1183738875,34.85407265625,13.0446004875,34.78029965625Q12.9708270875,34.70652365625,12.900762587500001,34.62921865625Q12.830697087499999,34.55191465625,12.7645101575,34.47126765625Q12.6983232475,34.39061765625,12.6361722975,34.306815656249995Q12.574022297500001,34.22301465625,12.5160589175,34.13626465625Q12.4580955475,34.04951865625,12.4044580475,33.96002965625Q12.3508205375,33.87054065625,12.3016395575,33.77852965625Q12.2524576175,33.686515656249995,12.2078504575,33.59220165625Q12.1632423375,33.49788665625,12.1233167675,33.40149665625Q12.0833902375,33.305106656250004,12.0482425675,33.20687465625Q12.0130939475,33.10864265625,11.9828081175,33.00880465625Q11.9525222775,32.908965656250004,11.9271717075,32.80775865625Q11.9018211375,32.70655465625,11.8814668655,32.60422565625Q11.8611135485,32.50189965625,11.8458042145,32.398696656249996Q11.8304958345,32.29549765625,11.8202695845,32.19166965625Q11.8100433345,32.087840656249995,11.8049240112,31.98363265625Q11.7998046875,31.87942665625,11.7998046875,31.77509465625ZM15.2001952875,12.71708965625L15.2001952875,15.98303225625Q15.2001952875,16.06654735625,15.208381687500001,16.14966015625Q15.2165670875,16.232774756250002,15.2328605875,16.31468395625Q15.2491530875,16.39659695625,15.2733974875,16.47651485625Q15.2976398875,16.556434656249998,15.3296002875,16.63359255625Q15.3615598875,16.710750556249998,15.400929487500001,16.784404756249998Q15.4402980875,16.858058956249998,15.4866962875,16.92749975625Q15.5330953875,16.99694065625,15.5860776875,17.061498656250002Q15.6390590875,17.12605855625,15.6981134875,17.185111956249997Q15.7571677875,17.24416735625,15.821725887500001,17.29714775625Q15.8862847875,17.350130056250002,15.9557246875,17.39652825625Q16.0251655875,17.44292645625,16.0988196875,17.48229595625Q16.172475787499998,17.52166555625,16.2496318875,17.55362515625Q16.3267917875,17.58558465625,16.4067115875,17.60982895625Q16.4866313875,17.63407135625,16.5685405875,17.65036395625Q16.650451687500002,17.66666035625,16.7335662875,17.67484475625Q16.8166808875,17.68303105625,16.9001941875,17.68303105625L27.100192687499998,17.68303105625Q27.1837096875,17.68303105625,27.2668226875,17.67484475625Q27.349937687500002,17.66666035625,27.4318466875,17.65036395625Q27.5137576875,17.63407135625,27.593677687499998,17.60982895625Q27.6735976875,17.58558465625,27.7507556875,17.55362515625Q27.8279136875,17.52166555625,27.9015696875,17.48229595625Q27.9752236875,17.44292645625,28.0446626875,17.39652825625Q28.1141056875,17.350130056250002,28.1786636875,17.29714775625Q28.2432216875,17.24416735625,28.3022746875,17.185111956249997Q28.3613276875,17.12605855625,28.4143106875,17.061498656250002Q28.4672926875,16.99694065625,28.5136906875,16.92749975625Q28.5600886875,16.858058956249998,28.5994606875,16.784404756249998Q28.6388286875,16.710750556249998,28.6707876875,16.63359255625Q28.7027496875,16.556434656249998,28.7269936875,16.47651485625Q28.7512356875,16.39659695625,28.7675286875,16.31468395625Q28.7838226875,16.232774756250002,28.7920096875,16.14966015625Q28.8001936875,16.06654735625,28.8001936875,15.98303225625L28.8001936875,12.71708965625Q28.8001936875,12.633574456249999,28.7920096875,12.55046085625Q28.7838226875,12.46734715625,28.7675286875,12.38543505625Q28.7512356875,12.303524956250001,28.7269936875,12.223605156249999Q28.7027496875,12.14368625625,28.6707876875,12.066527356249999Q28.6388286875,11.98936935625,28.5994586875,11.91571525625Q28.5600886875,11.84206005625,28.5136906875,11.77262015625Q28.4672926875,11.70317935625,28.4143106875,11.638621356249999Q28.3613276875,11.57406235625,28.3022746875,11.515007956249999Q28.2432216875,11.45595355625,28.1786636875,11.402972256249999Q28.1141056875,11.34998985625,28.0446626875,11.30359075625Q27.9752236875,11.25719265625,27.9015676875,11.21782305625Q27.8279136875,11.17845435625,27.7507556875,11.14649395625Q27.6735976875,11.114534356250001,27.593677687499998,11.090291056249999Q27.5137576875,11.06604865625,27.4318466875,11.04975505625Q27.349937687500002,11.03346155625,27.2668226875,11.02527615625Q27.1837096875,11.01708985625,27.100192687499998,11.01708985625L16.9001941875,11.01708985625Q16.8166808875,11.01708985625,16.7335662875,11.02527615625Q16.650451687500002,11.03346255625,16.5685405875,11.04975505625Q16.4866313875,11.06604865625,16.4067096875,11.090291056249999Q16.3267917875,11.114534356250001,16.2496318875,11.14649395625Q16.172475787499998,11.17845435625,16.0988196875,11.21782305625Q16.0251655875,11.25719265625,15.9557246875,11.30359075625Q15.8862847875,11.34998985625,15.821725887500001,11.402972256249999Q15.7571677875,11.45595355625,15.6981134875,11.515007956249999Q15.6390590875,11.57406235625,15.5860776875,11.638621356249999Q15.5330953875,11.70317935625,15.4866962875,11.77262015625Q15.4402980875,11.84206005625,15.400929487500001,11.91571525625Q15.3615598875,11.98936935625,15.3296002875,12.066527356249999Q15.2976398875,12.14368625625,15.2733964875,12.223605156249999Q15.2491530875,12.303524956250001,15.2328595875,12.38543505625Q15.2165670875,12.46734715625,15.208381687500001,12.55046085625Q15.2001952875,12.633574456249999,15.2001952875,12.71708965625ZM19.0251941875,21.78750065625Q19.0251941875,21.881456656250002,19.0159854875,21.97495865625Q19.0067767875,22.06846065625,18.9884452875,22.16061065625Q18.970115687499998,22.25275965625,18.942842487500002,22.342668656249998Q18.9155692875,22.43257665625,18.8796138875,22.51938065625Q18.8436584875,22.60618365625,18.799369787499998,22.689044656249997Q18.7550792875,22.77190565625,18.7028789875,22.85002665625Q18.6506805875,22.92815065625,18.591077787499998,23.00077865625Q18.531473187499998,23.07340665625,18.4650363875,23.13984065625Q18.3986014875,23.206277656250002,18.3259715875,23.26588465625Q18.253343587499998,23.32548665625,18.1752223875,23.37768565625Q18.0971030875,23.42988365625,18.0142402875,23.47417465625Q17.9313811875,23.51846265625,17.8445758875,23.55441865625Q17.7577743875,23.59037365625,17.6678638875,23.61764765625Q17.5779552875,23.64492265625,17.485805487500002,23.663249656250002Q17.393655787500002,23.68158165625,17.3001536875,23.69079065625Q17.206649787499998,23.69999865625,17.1126956875,23.69999865625Q17.018739687500002,23.69999865625,16.9252376875,23.69079065625Q16.8317355875,23.68158165625,16.739583987499998,23.663249656250002Q16.6474341875,23.64492265625,16.5575255875,23.61764765625Q16.4676169875,23.59037365625,16.3808135875,23.55441865625Q16.2940101875,23.51846265625,16.2111491875,23.474172656249998Q16.1282863875,23.42988365625,16.0501670875,23.37768365625Q15.9720458875,23.32548665625,15.8994178875,23.26588265625Q15.8267898875,23.206277656250002,15.7603530875,23.13984065625Q15.6939172875,23.07340665625,15.6343125875,23.00077865625Q15.5747079875,22.92815065625,15.522508587499999,22.85002665625Q15.4703101875,22.77190565625,15.4260205875,22.689044656249997Q15.3817300875,22.60618365625,15.3457746875,22.519382656250002Q15.3098201875,22.43257865625,15.2825469875,22.34267065625Q15.2552728875,22.25275965625,15.2369432875,22.16061065625Q15.2186135875,22.06846065625,15.209404987500001,21.97495865625Q15.2001952875,21.881456656250002,15.2001952875,21.78750065625Q15.2001952875,21.69354665625,15.209404987500001,21.60004265625Q15.2186135875,21.50654065625,15.2369432875,21.41438865625Q15.2552728875,21.32223865625,15.2825469875,21.23233065625Q15.3098210875,21.14241965625,15.3457755875,21.055616656250002Q15.3817309875,20.96881465625,15.4260205875,20.885953656250003Q15.4703101875,20.80309265625,15.522508587499999,20.72496965625Q15.5747079875,20.646850656250002,15.6343125875,20.57422265625Q15.6939172875,20.50159465625,15.7603530875,20.43515565625Q15.8267898875,20.368720656249998,15.8994178875,20.309116656249998Q15.9720458875,20.24951165625,16.0501670875,20.19731365625Q16.1282863875,20.14511465625,16.2111491875,20.10082665625Q16.2940101875,20.05653365625,16.3808135875,20.02058065625Q16.4676169875,19.98462465625,16.5575255875,19.957351656249998Q16.6474341875,19.93007865625,16.739583987499998,19.91174665625Q16.8317355875,19.89341965625,16.9252376875,19.884210656249998Q17.018739687500002,19.87499965625,17.1126956875,19.87499965625Q17.206649787499998,19.87499965625,17.3001536875,19.884210656249998Q17.393655787500002,19.89341965625,17.485805487500002,19.91174665625Q17.5779552875,19.93007865625,17.6678638875,19.957351656249998Q17.7577743875,19.98462465625,17.8445758875,20.02058065625Q17.9313811875,20.05653565625,18.0142402875,20.10082665625Q18.0971030875,20.14511465625,18.1752223875,20.19731365625Q18.253343587499998,20.24951165625,18.3259715875,20.30911865625Q18.3986014875,20.368720656249998,18.4650363875,20.43515765625Q18.531473187499998,20.50159465625,18.591077787499998,20.57422465625Q18.6506805875,20.646852656249997,18.7028789875,20.72497165625Q18.7550792875,20.80309265625,18.799369787499998,20.885953656250003Q18.8436584875,20.96881465625,18.8796138875,21.055618656249997Q18.9155692875,21.14242165625,18.942842487500002,21.23233065625Q18.970115687499998,21.32223865625,18.9884452875,21.41438865625Q19.0067767875,21.50654065625,19.0159854875,21.60004265625Q19.0251941875,21.69354665625,19.0251941875,21.78750065625ZM21.9994146875,23.69999865625Q22.0933706875,23.69999865625,22.1868726875,23.69079065625Q22.2803746875,23.68158165625,22.3725246875,23.663249656250002Q22.4646736875,23.64492265625,22.5545846875,23.61764765625Q22.6444916875,23.59037365625,22.7312946875,23.55441865625Q22.8180976875,23.51846265625,22.9009586875,23.474172656249998Q22.983819687500002,23.42988365625,23.061940687499998,23.37768365625Q23.1400626875,23.32548665625,23.212692687500002,23.26588265625Q23.2853206875,23.206277656250002,23.351754687499998,23.13984065625Q23.4181916875,23.07340665625,23.4777966875,23.00077865625Q23.5374016875,22.92815065625,23.589599687499998,22.85002665625Q23.641797687500002,22.77190565625,23.6860886875,22.689044656249997Q23.730377687500003,22.60618365625,23.7663326875,22.519382656250002Q23.802287687499998,22.43257865625,23.8295616875,22.34267065625Q23.8568366875,22.25275965625,23.8751636875,22.16061065625Q23.8934956875,22.06846065625,23.9027056875,21.97495865625Q23.9119146875,21.881456656250002,23.9119126875,21.78750065625Q23.9119146875,21.69354665625,23.9027056875,21.60004265625Q23.8934956875,21.50654065625,23.8751656875,21.41438865625Q23.8568366875,21.32223865625,23.8295616875,21.23233065625Q23.802287687499998,21.14241965625,23.7663326875,21.055616656250002Q23.730377687500003,20.96881465625,23.6860886875,20.885953656250003Q23.641797687500002,20.80309265625,23.5895976875,20.72496965625Q23.5374016875,20.646850656250002,23.4777966875,20.57422265625Q23.4181916875,20.50159465625,23.351754687499998,20.43515565625Q23.2853206875,20.368720656249998,23.212692687500002,20.309116656249998Q23.1400646875,20.24951165625,23.061940687499998,20.19731365625Q22.9838216875,20.14511465625,22.9009586875,20.10082665625Q22.8180976875,20.05653365625,22.7312966875,20.02058065625Q22.644492687499998,19.98462465625,22.5545846875,19.957351656249998Q22.4646736875,19.93007865625,22.3725246875,19.91174665625Q22.2803746875,19.89341965625,22.1868726875,19.884210656249998Q22.0933706875,19.87499965625,21.9994146875,19.87499965625Q21.9054606875,19.87499965625,21.811958687500002,19.884210656249998Q21.7184543875,19.89341965625,21.6263045875,19.91174665625Q21.5341548875,19.93007865625,21.4442443875,19.957351656249998Q21.354333887499998,19.98462465625,21.2675304875,20.02058065625Q21.180728887500003,20.05653565625,21.097867987500003,20.10082665625Q21.0150069875,20.14511465625,20.9368857875,20.19731365625Q20.8587646875,20.24951165625,20.7861365875,20.30911865625Q20.7135085875,20.368720656249998,20.647071887499997,20.43515765625Q20.5806350875,20.50159465625,20.5210322875,20.57422465625Q20.461425787499998,20.646852656249997,20.4092273875,20.72497165625Q20.3570289875,20.80309265625,20.3127402875,20.885953656250003Q20.2684497875,20.96881465625,20.232494387499997,21.055618656249997Q20.196538887499997,21.14242165625,20.169265787500002,21.23233065625Q20.1419925875,21.32223865625,20.123662987499998,21.41438865625Q20.105333287500002,21.50654065625,20.0961227875,21.60004265625Q20.0869140875,21.69354665625,20.0869140875,21.78750065625Q20.0869140875,21.881456656250002,20.0961227875,21.97495865625Q20.105333287500002,22.06846065625,20.1236610875,22.16061065625Q20.1419925875,22.25275965625,20.169265787500002,22.342668656249998Q20.196538887499997,22.43257665625,20.232494387499997,22.51938065625Q20.2684497875,22.60618365625,20.3127402875,22.689044656249997Q20.3570289875,22.77190565625,20.4092273875,22.85002665625Q20.461425787499998,22.92815065625,20.5210322875,23.00077865625Q20.5806350875,23.07340665625,20.647071887499997,23.13984065625Q20.7135085875,23.206277656250002,20.7861365875,23.26588465625Q20.8587646875,23.32548665625,20.9368857875,23.37768565625Q21.0150069875,23.42988365625,21.097867987500003,23.47417465625Q21.180728887500003,23.51846265625,21.2675304875,23.55441865625Q21.354333887499998,23.59037365625,21.4442443875,23.61764765625Q21.5341548875,23.64492265625,21.6263045875,23.663249656250002Q21.7184543875,23.68158165625,21.811958687500002,23.69079065625Q21.9054606875,23.69999865625,21.9994146875,23.69999865625ZM28.7996096875,21.78750065625Q28.7996096875,21.881456656250002,28.7904016875,21.97495865625Q28.7811926875,22.06846065625,28.7628626875,22.16061065625Q28.7445336875,22.25275965625,28.7172606875,22.342668656249998Q28.6899856875,22.43257665625,28.6540296875,22.51938065625Q28.6180766875,22.60618365625,28.5737856875,22.689044656249997Q28.5294956875,22.77190565625,28.4772946875,22.85002665625Q28.4250986875,22.92815065625,28.3654936875,23.00077865625Q28.3058886875,23.07340665625,28.2394526875,23.13984065625Q28.1730156875,23.206277656250002,28.1003876875,23.26588465625Q28.0277596875,23.32548665625,27.9496386875,23.37768565625Q27.8715166875,23.42988365625,27.7886566875,23.47417465625Q27.7057956875,23.51846265625,27.618989687499997,23.55441865625Q27.5321886875,23.59037365625,27.442279687499997,23.61764765625Q27.3523696875,23.64492265625,27.260219687499998,23.663249656250002Q27.1680696875,23.68158165625,27.0745676875,23.69079065625Q26.9810656875,23.69999865625,26.8871096875,23.69999865625Q26.793153687500002,23.69999865625,26.6996516875,23.69079065625Q26.6061476875,23.68158165625,26.5139976875,23.663249656250002Q26.421848687500002,23.64492265625,26.3319396875,23.61764765625Q26.2420296875,23.59037365625,26.1552256875,23.55441865625Q26.0684246875,23.51846265625,25.985563687499997,23.474172656249998Q25.9027026875,23.42988365625,25.8245806875,23.37768365625Q25.7464596875,23.32548665625,25.673831687499998,23.26588265625Q25.6012036875,23.206277656250002,25.5347666875,23.13984065625Q25.468332687500002,23.07340665625,25.4087276875,23.00077865625Q25.3491226875,22.92815065625,25.2969226875,22.85002665625Q25.2447246875,22.77190565625,25.200433687500002,22.689044656249997Q25.1561446875,22.60618365625,25.1201876875,22.519382656250002Q25.0842346875,22.43257865625,25.056960687500002,22.34267065625Q25.0296856875,22.25275965625,25.011356687499998,22.16061065625Q24.9930286875,22.06846065625,24.9838176875,21.97495865625Q24.9746096875,21.881456656250002,24.9746096875,21.78750065625Q24.9746096875,21.69354665625,24.9838176875,21.60004265625Q24.9930286875,21.50654065625,25.011356687499998,21.41438865625Q25.0296856875,21.32223865625,25.056960687500002,21.23233065625Q25.0842346875,21.14241965625,25.1201876875,21.055616656250002Q25.1561446875,20.96881465625,25.2004356875,20.885953656250003Q25.2447246875,20.80309265625,25.2969226875,20.72496965625Q25.3491226875,20.646850656250002,25.4087276875,20.57422265625Q25.468332687500002,20.50159465625,25.5347666875,20.43515565625Q25.6012036875,20.368720656249998,25.673831687499998,20.309116656249998Q25.7464596875,20.24951165625,25.824579687499998,20.19731365625Q25.9027006875,20.14511465625,25.985563687499997,20.10082665625Q26.0684246875,20.05653365625,26.1552256875,20.02058065625Q26.2420296875,19.98462465625,26.3319376875,19.957351656249998Q26.421848687500002,19.93007865625,26.5139976875,19.91174665625Q26.6061476875,19.89341965625,26.6996516875,19.884210656249998Q26.793153687500002,19.87499965625,26.8871096875,19.87499965625Q26.9810656875,19.87499965625,27.0745676875,19.884210656249998Q27.1680696875,19.89341965625,27.260219687499998,19.91174665625Q27.3523696875,19.93007865625,27.442277687500003,19.957351656249998Q27.5321886875,19.98462465625,27.618989687499997,20.02058065625Q27.705793687499998,20.05653565625,27.7886566875,20.10082665625Q27.8715166875,20.14511465625,27.9496366875,20.19731365625Q28.0277576875,20.24951165625,28.1003856875,20.30911865625Q28.1730136875,20.368720656249998,28.2394506875,20.43515765625Q28.3058876875,20.50159465625,28.3654916875,20.57422465625Q28.4250966875,20.646852656249997,28.4772946875,20.72497165625Q28.5294936875,20.80309265625,28.5737836875,20.885953656250003Q28.6180746875,20.96881465625,28.6540296875,21.055618656249997Q28.6899856875,21.14242165625,28.7172586875,21.23233065625Q28.7445336875,21.32223865625,28.7628616875,21.41438865625Q28.7811926875,21.50654065625,28.7904016875,21.60004265625Q28.7996096875,21.69354665625,28.7996096875,21.78750065625ZM17.1126956875,28.54179765625Q17.206649787499998,28.54179765625,17.3001536875,28.53258865625Q17.393655787500002,28.52338065625,17.485805487500002,28.50504865625Q17.5779552875,28.48672065625,17.6678638875,28.45944565625Q17.7577743875,28.43217065625,17.8445758875,28.39621565625Q17.9313811875,28.36025965625,18.0142402875,28.31597165625Q18.0971030875,28.27168265625,18.1752223875,28.21948265625Q18.253343587499998,28.16728565625,18.3259715875,28.10767965625Q18.3986014875,28.04807665625,18.4650363875,27.98163765625Q18.531473187499998,27.91520265625,18.591077787499998,27.84257365625Q18.6506805875,27.76994365625,18.7028789875,27.69182165625Q18.7550792875,27.61370065625,18.799369787499998,27.53084165625Q18.8436584875,27.44798065625,18.8796138875,27.36117765625Q18.9155692875,27.27437565625,18.942842487500002,27.18446765625Q18.970115687499998,27.09455865625,18.9884452875,27.00240665625Q19.0067767875,26.91025965625,19.0159854875,26.81675765625Q19.0251941875,26.72325365625,19.0251941875,26.62929765625Q19.0251941875,26.53534365625,19.0159854875,26.44183965625Q19.0067767875,26.34833565625,18.9884452875,26.25618565625Q18.970115687499998,26.16403565625,18.942842487500002,26.07412565625Q18.9155692875,25.98421665625,18.8796138875,25.89741365625Q18.8436584875,25.81061165625,18.799369787499998,25.72775265625Q18.7550792875,25.64488965625,18.7028789875,25.56676865625Q18.6506805875,25.48864765625,18.591077787499998,25.41601965625Q18.531473187499998,25.34339165625,18.4650363875,25.27695465625Q18.3986014875,25.21051765625,18.3259715875,25.15091365625Q18.253343587499998,25.09130865625,18.1752223875,25.03911065625Q18.0971030875,24.98691165625,18.0142402875,24.94262265625Q17.9313811875,24.89833465625,17.8445758875,24.86237765625Q17.7577743875,24.82642365625,17.6678638875,24.79915065625Q17.5779552875,24.77187765625,17.485805487500002,24.75354365625Q17.393655787500002,24.73521565625,17.3001536875,24.72600765625Q17.206649787499998,24.71679865625,17.1126956875,24.71679665625Q17.018739687500002,24.71679865625,16.9252376875,24.72600965625Q16.8317355875,24.73521765625,16.739583987499998,24.75354565625Q16.6474341875,24.77187765625,16.5575255875,24.79915065625Q16.4676169875,24.82642365625,16.3808135875,24.86237765625Q16.2940101875,24.89833465625,16.2111491875,24.94262265625Q16.1282863875,24.98691365625,16.0501670875,25.03911165625Q15.9720458875,25.09131065625,15.8994178875,25.15091465625Q15.8267898875,25.21051765625,15.7603530875,25.27695465625Q15.6939172875,25.34339165625,15.6343125875,25.41601965625Q15.5747079875,25.48864765625,15.522508587499999,25.56676865625Q15.4703101875,25.64488965625,15.4260205875,25.72775065625Q15.3817300875,25.81061165625,15.3457746875,25.89741365625Q15.3098201875,25.98421665625,15.2825469875,26.07412765625Q15.2552728875,26.16403565625,15.2369432875,26.25618565625Q15.2186135875,26.34833565625,15.209404987500001,26.44184065625Q15.2001952875,26.53534365625,15.2001952875,26.62929765625Q15.2001952875,26.72325365625,15.209404987500001,26.81675565625Q15.2186135875,26.91025965625,15.2369432875,27.00240665625Q15.2552728875,27.09455865625,15.2825469875,27.18446765625Q15.3098210875,27.27437765625,15.3457755875,27.36117965625Q15.3817309875,27.44798265625,15.4260205875,27.53084365625Q15.4703101875,27.61370465625,15.522508587499999,27.69182365625Q15.5747079875,27.76994665625,15.6343125875,27.84257465625Q15.6939172875,27.91520465625,15.7603530875,27.98163965625Q15.8267898875,28.04807665625,15.8994178875,28.10768165625Q15.9720458875,28.16728565625,16.0501670875,28.21948465625Q16.1282863875,28.27168265625,16.2111491875,28.31597365625Q16.2940101875,28.36026365625,16.3808135875,28.39621765625Q16.4676169875,28.43217265625,16.5575255875,28.45944565625Q16.6474341875,28.48672065625,16.739583987499998,28.50505065625Q16.8317355875,28.52338065625,16.9252376875,28.53259065625Q17.018739687500002,28.54179765625,17.1126956875,28.54179765625ZM23.9119126875,26.62929765625Q23.9119146875,26.72325365625,23.9027056875,26.81675565625Q23.8934956875,26.91025965625,23.8751656875,27.00240665625Q23.8568366875,27.09455865625,23.8295616875,27.18446765625Q23.802287687499998,27.27437765625,23.7663326875,27.36117965625Q23.730377687500003,27.44798265625,23.6860886875,27.53084365625Q23.641797687500002,27.61370465625,23.5895976875,27.69182365625Q23.5374016875,27.76994665625,23.4777966875,27.84257465625Q23.4181916875,27.91520465625,23.351754687499998,27.98163965625Q23.2853206875,28.04807665625,23.212692687500002,28.10768165625Q23.1400646875,28.16728565625,23.061940687499998,28.21948465625Q22.9838216875,28.27168265625,22.9009586875,28.31597365625Q22.8180976875,28.36026365625,22.7312966875,28.39621765625Q22.644492687499998,28.43217265625,22.5545846875,28.45944565625Q22.4646736875,28.48672065625,22.3725246875,28.50505065625Q22.2803746875,28.52338065625,22.1868726875,28.53259065625Q22.0933706875,28.54179765625,21.9994146875,28.54179765625Q21.9054606875,28.54179765625,21.811958687500002,28.53258865625Q21.7184543875,28.52338065625,21.6263045875,28.50504865625Q21.5341548875,28.48672065625,21.4442443875,28.45944565625Q21.354333887499998,28.43217065625,21.2675304875,28.39621565625Q21.180728887500003,28.36025965625,21.097867987500003,28.31597165625Q21.0150069875,28.27168265625,20.9368857875,28.21948265625Q20.8587646875,28.16728565625,20.7861365875,28.10767965625Q20.7135085875,28.04807665625,20.647071887499997,27.98163765625Q20.5806350875,27.91520265625,20.5210322875,27.84257365625Q20.461425787499998,27.76994365625,20.4092273875,27.69182165625Q20.3570289875,27.61370065625,20.3127402875,27.53084165625Q20.2684497875,27.44798065625,20.232494387499997,27.36117765625Q20.196538887499997,27.27437565625,20.169265787500002,27.18446765625Q20.1419925875,27.09455865625,20.123662987499998,27.00240665625Q20.105333287500002,26.91025965625,20.0961227875,26.81675765625Q20.0869140875,26.72325365625,20.0869140875,26.62929765625Q20.0869140875,26.53534365625,20.0961227875,26.44183965625Q20.105333287500002,26.34833565625,20.1236610875,26.25618565625Q20.1419925875,26.16403565625,20.169265787500002,26.07412565625Q20.196538887499997,25.98421665625,20.232494387499997,25.89741365625Q20.2684497875,25.81061165625,20.3127402875,25.72775265625Q20.3570289875,25.64488965625,20.4092273875,25.56676865625Q20.461425787499998,25.48864765625,20.5210322875,25.41601965625Q20.5806350875,25.34339165625,20.647071887499997,25.27695465625Q20.7135085875,25.21051765625,20.7861365875,25.15091365625Q20.8587646875,25.09130865625,20.9368857875,25.03911065625Q21.0150069875,24.98691165625,21.097867987500003,24.94262265625Q21.180728887500003,24.89833465625,21.2675304875,24.86237765625Q21.354333887499998,24.82642365625,21.4442443875,24.79915065625Q21.5341548875,24.77187765625,21.6263045875,24.75354365625Q21.7184543875,24.73521565625,21.811958687500002,24.72600765625Q21.9054606875,24.71679865625,21.9994146875,24.71679665625Q22.0933706875,24.71679865625,22.1868726875,24.72600965625Q22.2803746875,24.73521765625,22.3725246875,24.75354565625Q22.4646736875,24.77187765625,22.5545846875,24.79915065625Q22.6444916875,24.82642365625,22.7312946875,24.86237765625Q22.8180976875,24.89833465625,22.9009586875,24.94262265625Q22.983819687500002,24.98691365625,23.061940687499998,25.03911165625Q23.1400626875,25.09131065625,23.212692687500002,25.15091465625Q23.2853206875,25.21051765625,23.351754687499998,25.27695465625Q23.4181916875,25.34339165625,23.4777966875,25.41601965625Q23.5374016875,25.48864765625,23.589599687499998,25.56676865625Q23.641797687500002,25.64488965625,23.6860886875,25.72775065625Q23.730377687500003,25.81061165625,23.7663326875,25.89741365625Q23.802287687499998,25.98421665625,23.8295616875,26.07412765625Q23.8568366875,26.16403565625,23.8751636875,26.25618565625Q23.8934956875,26.34833565625,23.9027056875,26.44184065625Q23.9119146875,26.53534365625,23.9119126875,26.62929765625ZM26.8871096875,28.54179765625Q26.9810656875,28.54179765625,27.0745676875,28.53258865625Q27.1680696875,28.52338065625,27.260219687499998,28.50504865625Q27.3523696875,28.48672065625,27.442277687500003,28.45944565625Q27.5321886875,28.43217065625,27.618989687499997,28.39621565625Q27.705793687499998,28.36025965625,27.7886566875,28.31597165625Q27.8715166875,28.27168265625,27.9496366875,28.21948265625Q28.0277576875,28.16728565625,28.1003856875,28.10767965625Q28.1730136875,28.04807665625,28.2394506875,27.98163765625Q28.3058876875,27.91520265625,28.3654916875,27.84257365625Q28.4250966875,27.76994365625,28.4772946875,27.69182165625Q28.5294936875,27.61370065625,28.5737836875,27.53084165625Q28.6180746875,27.44798065625,28.6540296875,27.36117765625Q28.6899856875,27.27437565625,28.7172586875,27.18446765625Q28.7445336875,27.09455865625,28.7628616875,27.00240665625Q28.7811926875,26.91025965625,28.7904016875,26.81675765625Q28.7996096875,26.72325365625,28.7996096875,26.62929765625Q28.7996096875,26.53534365625,28.7904016875,26.44183965625Q28.7811926875,26.34833565625,28.7628626875,26.25618565625Q28.7445336875,26.16403565625,28.7172606875,26.07412565625Q28.6899856875,25.98421665625,28.6540296875,25.89741365625Q28.6180766875,25.81061165625,28.5737856875,25.72775265625Q28.5294956875,25.64488965625,28.4772946875,25.56676865625Q28.4250986875,25.48864765625,28.3654936875,25.41601965625Q28.3058886875,25.34339165625,28.2394526875,25.27695465625Q28.1730156875,25.21051765625,28.1003876875,25.15091365625Q28.0277596875,25.09130865625,27.9496386875,25.03911065625Q27.8715166875,24.98691165625,27.7886566875,24.94262265625Q27.7057956875,24.89833465625,27.618989687499997,24.86237765625Q27.5321886875,24.82642365625,27.442279687499997,24.79915065625Q27.3523696875,24.77187765625,27.260219687499998,24.75354365625Q27.1680696875,24.73521565625,27.0745676875,24.72600765625Q26.9810656875,24.71679865625,26.8871096875,24.71679665625Q26.793153687500002,24.71679865625,26.6996516875,24.72600965625Q26.6061476875,24.73521765625,26.5139976875,24.75354565625Q26.421848687500002,24.77187765625,26.3319396875,24.79915065625Q26.2420296875,24.82642365625,26.1552256875,24.86237765625Q26.0684246875,24.89833465625,25.985563687499997,24.94262265625Q25.9027026875,24.98691365625,25.8245806875,25.03911165625Q25.7464596875,25.09131065625,25.673831687499998,25.15091465625Q25.6012036875,25.21051765625,25.5347666875,25.27695465625Q25.468332687500002,25.34339165625,25.4087276875,25.41601965625Q25.3491226875,25.48864765625,25.2969226875,25.56676865625Q25.2447246875,25.64488965625,25.200433687500002,25.72775065625Q25.1561446875,25.81061165625,25.1201876875,25.89741365625Q25.0842346875,25.98421665625,25.056960687500002,26.07412765625Q25.0296856875,26.16403565625,25.011356687499998,26.25618565625Q24.9930286875,26.34833565625,24.9838176875,26.44184065625Q24.9746096875,26.53534365625,24.9746096875,26.62929765625Q24.9746096875,26.72325365625,24.9838176875,26.81675565625Q24.9930286875,26.91025965625,25.011356687499998,27.00240665625Q25.0296856875,27.09455865625,25.056960687500002,27.18446765625Q25.0842346875,27.27437765625,25.1201876875,27.36117965625Q25.1561446875,27.44798265625,25.2004356875,27.53084365625Q25.2447246875,27.61370465625,25.2969226875,27.69182365625Q25.3491226875,27.76994665625,25.4087276875,27.84257465625Q25.468332687500002,27.91520465625,25.5347666875,27.98163965625Q25.6012036875,28.04807665625,25.673831687499998,28.10768165625Q25.7464596875,28.16728565625,25.824579687499998,28.21948465625Q25.9027006875,28.27168265625,25.985563687499997,28.31597365625Q26.0684246875,28.36026365625,26.1552256875,28.39621765625Q26.2420296875,28.43217265625,26.3319376875,28.45944565625Q26.421848687500002,28.48672065625,26.5139976875,28.50505065625Q26.6061476875,28.52338065625,26.6996516875,28.53259065625Q26.793153687500002,28.54179765625,26.8871096875,28.54179765625ZM19.0251941875,31.47109365625Q19.0251941875,31.56504965625,19.0159854875,31.65855265625Q19.0067767875,31.75205565625,18.9884452875,31.84420365625Q18.970115687499998,31.93635565625,18.942842487500002,32.02626465625Q18.9155692875,32.11617265625,18.8796138875,32.20297665625Q18.8436584875,32.289779656250005,18.799369787499998,32.37264265625Q18.7550792875,32.45550165625,18.7028789875,32.53361865625Q18.6506805875,32.61174365625,18.591077787499998,32.68437165625Q18.531473187499998,32.75699965625,18.4650363875,32.82343265625Q18.3986014875,32.88987365625,18.3259715875,32.94947765625Q18.253343587499998,33.00908265625,18.1752223875,33.06127965625Q18.0971030875,33.11347965625,18.0142402875,33.15776865625Q17.9313811875,33.20205665625,17.8445758875,33.23801465625Q17.7577743875,33.27396765625,17.6678638875,33.30124265625Q17.5779552875,33.32851765625,17.485805487500002,33.34684765625Q17.393655787500002,33.36517665625,17.3001536875,33.37438565625Q17.206649787499998,33.38359465625,17.1126956875,33.38359465625Q17.018739687500002,33.38359465625,16.9252376875,33.37438565625Q16.8317355875,33.36517665625,16.739583987499998,33.34684765625Q16.6474341875,33.32851765625,16.5575255875,33.30124265625Q16.4676169875,33.27396765625,16.3808135875,33.23801465625Q16.2940101875,33.20205665625,16.2111491875,33.15776865625Q16.1282863875,33.11347965625,16.0501670875,33.06127965625Q15.9720458875,33.00908265625,15.8994178875,32.94947765625Q15.8267898875,32.88987365625,15.7603530875,32.823436656249996Q15.6939172875,32.75699965625,15.6343125875,32.68437165625Q15.5747079875,32.61174365625,15.522508587499999,32.53362265625Q15.4703101875,32.45550565625,15.4260205875,32.37264265625Q15.3817300875,32.289779656250005,15.3457746875,32.20297665625Q15.3098201875,32.11617265625,15.2825469875,32.02626465625Q15.2552728875,31.93635565625,15.2369432875,31.84420365625Q15.2186135875,31.75205565625,15.209404987500001,31.65855265625Q15.2001952875,31.56504965625,15.2001952875,31.47109365625Q15.2001952875,31.37713965625,15.209404987500001,31.28363565625Q15.2186135875,31.19013165625,15.2369432875,31.09798065625Q15.2552728875,31.00583265625,15.2825469875,30.91592265625Q15.3098210875,30.82601365625,15.3457755875,30.73920965625Q15.3817309875,30.65240865625,15.4260205875,30.56954565625Q15.4703101875,30.48668665625,15.522508587499999,30.40856565625Q15.5747079875,30.33044665625,15.6343125875,30.25781865625Q15.6939172875,30.18518865625,15.7603530875,30.11875165625Q15.8267898875,30.05231665625,15.8994178875,29.99271165625Q15.9720458875,29.93310765625,16.0501670875,29.88090665625Q16.1282863875,29.82870865625,16.2111491875,29.78441765625Q16.2940101875,29.74012965625,16.3808135875,29.70417365625Q16.4676169875,29.66822065625,16.5575255875,29.64094565625Q16.6474341875,29.61367465625,16.739583987499998,29.59534265625Q16.8317355875,29.57701465625,16.9252376875,29.56780465625Q17.018739687500002,29.55859365625,17.1126956875,29.55859365625Q17.206649787499998,29.55859365625,17.3001536875,29.56780465625Q17.393655787500002,29.57701265625,17.485805487500002,29.59534065625Q17.5779552875,29.61367265625,17.6678638875,29.64094565625Q17.7577743875,29.66822065625,17.8445758875,29.70417365625Q17.9313811875,29.74012965625,18.0142402875,29.78441965625Q18.0971030875,29.82870865625,18.1752223875,29.88090665625Q18.253343587499998,29.93310765625,18.3259715875,29.99271165625Q18.3986014875,30.05231665625,18.4650363875,30.11875165625Q18.531473187499998,30.18518865625,18.591077787499998,30.25781665625Q18.6506805875,30.33044665625,18.7028789875,30.40856565625Q18.7550792875,30.48668665625,18.799369787499998,30.56954765625Q18.8436584875,30.65240865625,18.8796138875,30.73921165625Q18.9155692875,30.82601565625,18.942842487500002,30.91592365625Q18.970115687499998,31.00583265625,18.9884452875,31.09798265625Q19.0067767875,31.19013365625,19.0159854875,31.28363765625Q19.0251941875,31.37713965625,19.0251941875,31.47109365625ZM21.9994146875,33.38359465625Q22.0933706875,33.38359465625,22.1868726875,33.37438565625Q22.2803746875,33.36517665625,22.3725246875,33.34684765625Q22.4646736875,33.32851765625,22.5545846875,33.30124265625Q22.6444916875,33.27396765625,22.7312946875,33.23801465625Q22.8180976875,33.20205665625,22.9009586875,33.15776865625Q22.983819687500002,33.11347965625,23.061940687499998,33.06127965625Q23.1400626875,33.00908265625,23.212692687500002,32.94947765625Q23.2853206875,32.88987365625,23.351754687499998,32.823436656249996Q23.4181916875,32.75699965625,23.4777966875,32.68437165625Q23.5374016875,32.61174365625,23.589599687499998,32.53362265625Q23.641797687500002,32.45550565625,23.6860886875,32.37264265625Q23.730377687500003,32.289779656250005,23.7663326875,32.20297665625Q23.802287687499998,32.11617265625,23.8295616875,32.02626465625Q23.8568366875,31.93635565625,23.8751636875,31.84420365625Q23.8934956875,31.75205565625,23.9027056875,31.65855265625Q23.9119146875,31.56504965625,23.9119126875,31.47109365625Q23.9119146875,31.37713965625,23.9027056875,31.28363565625Q23.8934956875,31.19013165625,23.8751656875,31.09798065625Q23.8568366875,31.00583265625,23.8295616875,30.91592265625Q23.802287687499998,30.82601365625,23.7663326875,30.73920965625Q23.730377687500003,30.65240865625,23.6860886875,30.56954565625Q23.641797687500002,30.48668665625,23.5895976875,30.40856565625Q23.5374016875,30.33044665625,23.4777966875,30.25781865625Q23.4181916875,30.18518865625,23.351754687499998,30.11875165625Q23.2853206875,30.05231665625,23.212692687500002,29.99271165625Q23.1400646875,29.93310765625,23.061940687499998,29.88090665625Q22.9838216875,29.82870865625,22.9009586875,29.78441765625Q22.8180976875,29.74012965625,22.7312966875,29.70417365625Q22.644492687499998,29.66822065625,22.5545846875,29.64094565625Q22.4646736875,29.61367465625,22.3725246875,29.59534265625Q22.2803746875,29.57701465625,22.1868726875,29.56780465625Q22.0933706875,29.55859365625,21.9994146875,29.55859365625Q21.9054606875,29.55859365625,21.811958687500002,29.56780465625Q21.7184543875,29.57701265625,21.6263045875,29.59534065625Q21.5341548875,29.61367265625,21.4442443875,29.64094565625Q21.354333887499998,29.66822065625,21.2675304875,29.70417365625Q21.180728887500003,29.74012965625,21.097867987500003,29.78441965625Q21.0150069875,29.82870865625,20.9368857875,29.88090665625Q20.8587646875,29.93310765625,20.7861365875,29.99271165625Q20.7135085875,30.05231665625,20.647071887499997,30.11875165625Q20.5806350875,30.18518865625,20.5210322875,30.25781665625Q20.461425787499998,30.33044665625,20.4092273875,30.40856565625Q20.3570289875,30.48668665625,20.3127402875,30.56954765625Q20.2684497875,30.65240865625,20.232494387499997,30.73921165625Q20.196538887499997,30.82601565625,20.169265787500002,30.91592365625Q20.1419925875,31.00583265625,20.123662987499998,31.09798265625Q20.105333287500002,31.19013365625,20.0961227875,31.28363765625Q20.0869140875,31.37713965625,20.0869140875,31.47109365625Q20.0869140875,31.56504965625,20.0961227875,31.65855265625Q20.105333287500002,31.75205565625,20.1236610875,31.84420365625Q20.1419925875,31.93635565625,20.169265787500002,32.02626465625Q20.196538887499997,32.11617265625,20.232494387499997,32.20297665625Q20.2684497875,32.289779656250005,20.3127402875,32.37264265625Q20.3570289875,32.45550165625,20.4092273875,32.53361865625Q20.461425787499998,32.61174365625,20.5210322875,32.68437165625Q20.5806350875,32.75699965625,20.647071887499997,32.82343265625Q20.7135085875,32.88987365625,20.7861365875,32.94947765625Q20.8587646875,33.00908265625,20.9368857875,33.06127965625Q21.0150069875,33.11347965625,21.097867987500003,33.15776865625Q21.180728887500003,33.20205665625,21.2675304875,33.23801465625Q21.354333887499998,33.27396765625,21.4442443875,33.30124265625Q21.5341548875,33.32851765625,21.6263045875,33.34684765625Q21.7184543875,33.36517665625,21.811958687500002,33.37438565625Q21.9054606875,33.38359465625,21.9994146875,33.38359465625ZM28.7996096875,31.47109365625Q28.7996096875,31.56504965625,28.7904016875,31.65855265625Q28.7811926875,31.75205565625,28.7628626875,31.84420365625Q28.7445336875,31.93635565625,28.7172606875,32.02626465625Q28.6899856875,32.11617265625,28.6540296875,32.20297665625Q28.6180766875,32.289779656250005,28.5737856875,32.37264265625Q28.5294956875,32.45550165625,28.4772946875,32.53361865625Q28.4250986875,32.61174365625,28.3654936875,32.68437165625Q28.3058886875,32.75699965625,28.2394526875,32.82343265625Q28.1730156875,32.88987365625,28.1003876875,32.94947765625Q28.0277596875,33.00908265625,27.9496386875,33.06127965625Q27.8715166875,33.11347965625,27.7886566875,33.15776865625Q27.7057956875,33.20205665625,27.618989687499997,33.23801465625Q27.5321886875,33.27396765625,27.442279687499997,33.30124265625Q27.3523696875,33.32851765625,27.260219687499998,33.34684765625Q27.1680696875,33.36517665625,27.0745676875,33.37438565625Q26.9810656875,33.38359465625,26.8871096875,33.38359465625Q26.793153687500002,33.38359465625,26.6996516875,33.37438565625Q26.6061476875,33.36517665625,26.5139976875,33.34684765625Q26.421848687500002,33.32851765625,26.3319396875,33.30124265625Q26.2420296875,33.27396765625,26.1552256875,33.23801465625Q26.0684246875,33.20205665625,25.985563687499997,33.15776865625Q25.9027026875,33.11347965625,25.8245806875,33.06127965625Q25.7464596875,33.00908265625,25.673831687499998,32.94947765625Q25.6012036875,32.88987365625,25.5347666875,32.823436656249996Q25.468332687500002,32.75699965625,25.4087276875,32.68437165625Q25.3491226875,32.61174365625,25.2969226875,32.53362265625Q25.2447246875,32.45550565625,25.200433687500002,32.37264265625Q25.1561446875,32.289779656250005,25.1201876875,32.20297665625Q25.0842346875,32.11617265625,25.056960687500002,32.02626465625Q25.0296856875,31.93635565625,25.011356687499998,31.84420365625Q24.9930286875,31.75205565625,24.9838176875,31.65855265625Q24.9746096875,31.56504965625,24.9746096875,31.47109365625Q24.9746096875,31.37713965625,24.9838176875,31.28363565625Q24.9930286875,31.19013165625,25.011356687499998,31.09798065625Q25.0296856875,31.00583265625,25.056960687500002,30.91592265625Q25.0842346875,30.82601365625,25.1201876875,30.73920965625Q25.1561446875,30.65240865625,25.2004356875,30.56954565625Q25.2447246875,30.48668665625,25.2969226875,30.40856565625Q25.3491226875,30.33044665625,25.4087276875,30.25781865625Q25.468332687500002,30.18518865625,25.5347666875,30.11875165625Q25.6012036875,30.05231665625,25.673831687499998,29.99271165625Q25.7464596875,29.93310765625,25.824579687499998,29.88090665625Q25.9027006875,29.82870865625,25.985563687499997,29.78441765625Q26.0684246875,29.74012965625,26.1552256875,29.70417365625Q26.2420296875,29.66822065625,26.3319376875,29.64094565625Q26.421848687500002,29.61367465625,26.5139976875,29.59534265625Q26.6061476875,29.57701465625,26.6996516875,29.56780465625Q26.793153687500002,29.55859365625,26.8871096875,29.55859365625Q26.9810656875,29.55859365625,27.0745676875,29.56780465625Q27.1680696875,29.57701265625,27.260219687499998,29.59534065625Q27.3523696875,29.61367265625,27.442277687500003,29.64094565625Q27.5321886875,29.66822065625,27.618989687499997,29.70417365625Q27.705793687499998,29.74012965625,27.7886566875,29.78441965625Q27.8715166875,29.82870865625,27.9496366875,29.88090665625Q28.0277576875,29.93310765625,28.1003856875,29.99271165625Q28.1730136875,30.05231665625,28.2394506875,30.11875165625Q28.3058876875,30.18518865625,28.3654916875,30.25781665625Q28.4250966875,30.33044665625,28.4772946875,30.40856565625Q28.5294936875,30.48668665625,28.5737836875,30.56954765625Q28.6180746875,30.65240865625,28.6540296875,30.73921165625Q28.6899856875,30.82601565625,28.7172586875,30.91592365625Q28.7445336875,31.00583265625,28.7628616875,31.09798265625Q28.7811926875,31.19013365625,28.7904016875,31.28363765625Q28.7996096875,31.37713965625,28.7996096875,31.47109365625Z" fill-rule="evenodd" fill="#FFFFFF" fill-opacity="1" style="mix-blend-mode:passthrough"/></g></svg>