<svg xmlns="http://www.w3.org/2000/svg" xmlns:xlink="http://www.w3.org/1999/xlink" fill="none" version="1.1" width="44" height="44" viewBox="0 0 44 44"><defs><clipPath id="master_svg0_74_1103"><rect x="0" y="0" width="44" height="44" rx="0"/></clipPath></defs><g clip-path="url(#master_svg0_74_1103)"><path d="M31.13757325,20.1405028875Q31.76379425,20.1350097875,32.208740250000005,19.6955566875Q32.65368625,19.2561034875,32.65368625,18.6298827875Q32.65368625,18.0091552875,32.20599325,17.5642089875Q31.75830125,17.1192626875,31.13757325,17.1192626875Q30.51135225,17.1192626875,30.06365925,17.5642089875Q29.61596725,18.0091552875,29.61596725,18.6298827875Q29.61596725,19.2561034875,30.06091325,19.7010497875Q30.50585925,20.145996087500002,31.13757325,20.1405028875ZM12.147705049999999,32.8406986875Q10.26904295,32.8406986875,9.26928711,31.8464356875Q8.26953125,30.8521726875,8.26953125,28.9844966875L8.26953125,17.4104003875Q8.26953125,15.5482177875,9.26928711,14.5539550875Q10.26904295,13.5596923875,12.147705049999999,13.5596923875L14.69653325,13.5596923875Q15.33923335,13.5596923875,15.67431645,13.4278564875Q16.00939945,13.2960204875,16.44335935,12.8730468875L17.30029295,12.0161132775Q17.76171875,11.5711669875,18.27532925,11.3651733375Q18.78894025,11.1591796875,19.60742225,11.1591796875L24.35351525,11.1591796875Q25.17199725,11.1591796875,25.68835425,11.3651733375Q26.20471225,11.5711669875,26.66064425,12.0161132775L27.51208525,12.8730468875Q27.80871625,13.1586913875,28.04217525,13.3070067875Q28.27563525,13.4553222875,28.55303925,13.507507287500001Q28.83044425,13.5596923875,29.25891125,13.5596923875L31.84619125,13.5596923875Q33.724853249999995,13.5596923875,34.72735625,14.5539550875Q35.72985825,15.5482177875,35.72985825,17.4104003875L35.72985825,28.9844966875Q35.72985825,30.8521726875,34.72735625,31.8464356875Q33.724853249999995,32.8406986875,31.84619125,32.8406986875L12.147705049999999,32.8406986875ZM21.996948250000003,29.0723876875Q23.21093725,29.0723876875,24.26562525,28.6219486875Q25.32031225,28.1715086875,26.11956825,27.3722536875Q26.91882325,26.5729976875,27.36926225,25.5155636875Q27.81970225,24.458129687499998,27.81970225,23.2331546875Q27.81970225,21.6126706875,27.03967325,20.2888183875Q26.25964325,18.9649657875,24.93579125,18.1849364875Q23.61193825,17.4049071875,21.996948250000003,17.4049071875Q20.78845225,17.4049071875,19.731018249999998,17.8526000875Q18.673584249999998,18.3002929875,17.87707515,19.1022948875Q17.08056645,19.9042968875,16.62738035,20.961730987499998Q16.17419435,22.0191646875,16.17419435,23.2331546875Q16.17419435,24.458129687499998,16.62738035,25.5155636875Q17.08056645,26.5729976875,17.87707515,27.3722536875Q18.673584249999998,28.1715086875,19.731018249999998,28.6219486875Q20.78845225,29.0723876875,21.996948250000003,29.0723876875ZM21.996948250000003,26.5894776875Q21.07409625,26.5894776875,20.31604025,26.136291687499998Q19.55798325,25.6831056875,19.10479725,24.925048687500002Q18.651611250000002,24.1669916875,18.651611250000002,23.2331546875Q18.651611250000002,22.3048096875,19.10479725,21.5467526875Q19.55798325,20.788696287500002,20.31604025,20.3355102875Q21.07409625,19.8823241875,21.996948250000003,19.8823241875Q22.92529325,19.8823241875,23.68334925,20.3355102875Q24.44140625,20.788696287500002,24.89184525,21.5467526875Q25.34228525,22.3048096875,25.34228525,23.2331546875Q25.34228525,24.1669916875,24.89184525,24.925048687500002Q24.44140625,25.6831056875,23.68334925,26.136291687499998Q22.92529325,26.5894776875,21.996948250000003,26.5894776875Z" fill="#FFFFFF" fill-opacity="1" style="mix-blend-mode:passthrough"/></g></svg>