<svg xmlns="http://www.w3.org/2000/svg" xmlns:xlink="http://www.w3.org/1999/xlink" fill="none" version="1.1" width="44" height="44" viewBox="0 0 44 44"><defs><clipPath id="master_svg0_74_5681"><rect x="0" y="0" width="44" height="44" rx="0"/></clipPath></defs><g clip-path="url(#master_svg0_74_5681)"><path d="M15.7587890625,10.26611325625L15.7587890625,9.942626956249999Q15.7587890625,7.28759765625,18.3527831625,7.28759765625L25.6464843625,7.28759765625Q28.2404780625,7.28759765625,28.2404780625,9.942626956249999L28.2404780625,10.26611325625L15.7587890625,10.26611325625ZM20.8491210625,36.71264665625Q19.5795898625,36.71264665625,18.9143066625,36.04125965625Q18.2490234625,35.369872656249996,18.2490234625,34.05761765625L18.2490234625,19.79980465625Q18.2490234625,18.81103565625,18.0476074625,18.12133765625Q17.8461913625,17.43164065625,17.4921874625,16.88842775625L16.7963867625,15.79589845625Q16.3325195325,15.08178715625,16.0456542925,14.39514155625Q15.7587890625,13.708496056249999,15.7587890625,12.847900356250001L15.7587890625,11.96899415625L28.2404780625,11.96899415625L28.2404780625,12.847900356250001Q28.2404780625,13.708496056249999,27.9505610625,14.39514155625Q27.660644062499998,15.08178715625,27.2089840625,15.79589845625L26.507080062500002,16.88842775625Q26.1591800625,17.43164065625,25.9547120625,18.12133765625Q25.7502441625,18.81103565625,25.7502441625,19.79980465625L25.7502441625,34.05761765625Q25.7502441625,35.369872656249996,25.0880126625,36.04125965625Q24.4257812625,36.71264665625,23.1501464625,36.71264665625L20.8491210625,36.71264665625ZM19.7199706625,20.88012665625L19.7199706625,24.86572265625Q19.7199706625,25.82397465625,20.3791503625,26.48010265625Q21.038330062500002,27.13623065625,22.0087890625,27.13623065625Q22.9609374625,27.13623065625,23.6201171625,26.48010265625Q24.2792968625,25.82397465625,24.2792968625,24.86572265625L24.2792968625,20.88012665625Q24.2792968625,19.92187465625,23.6201171625,19.26269565625Q22.9609374625,18.60351565625,22.0087890625,18.60351565625Q21.038330062500002,18.60351565625,20.3791503625,19.26269565625Q19.7199706625,19.92187465625,19.7199706625,20.88012665625ZM22.0087890625,26.34277365625Q21.3801269625,26.34277365625,20.9498290625,25.91857865625Q20.5195312625,25.49438465625,20.5195312625,24.86572265625Q20.5195312625,24.25537065625,20.9528808625,23.82507365625Q21.386230462500002,23.39477565625,22.0087890625,23.39477565625Q22.6252441625,23.39477565625,23.0555419625,23.82507365625Q23.4858398625,24.25537065625,23.4858398625,24.86572265625Q23.4858398625,25.49438465625,23.0616454625,25.91857865625Q22.6374511625,26.34277365625,22.0087890625,26.34277365625Z" fill="#FFFFFF" fill-opacity="1" style="mix-blend-mode:passthrough"/></g></svg>