<svg xmlns="http://www.w3.org/2000/svg" xmlns:xlink="http://www.w3.org/1999/xlink" fill="none" version="1.1" width="44" height="44" viewBox="0 0 44 44"><defs><clipPath id="master_svg0_74_5697"><rect x="0" y="0" width="44" height="44" rx="0"/></clipPath></defs><g clip-path="url(#master_svg0_74_5697)"><path d="M20.9833984375,34.890625Q18.316162437499997,34.890625,15.9785156375,33.886596999999995Q13.640869137500001,32.882568,11.8647461375,31.112549Q10.0886230375,29.342529,9.0906982375,27.004883Q8.0927734375,24.667236000000003,8.0927734375,22Q8.0927734375,19.332763999999997,9.0906982375,16.9951172Q10.0886230375,14.657470700000001,11.8647461375,12.8813477Q13.640869137500001,11.1052246,15.9785156375,10.1072998Q18.316162437499997,9.109375,20.9833984375,9.109375Q23.650634437500003,9.109375,25.9882814375,10.1072998Q28.3259274375,11.1052246,30.0989994375,12.8813477Q31.8720704375,14.657470700000001,32.8730464375,16.9951172Q33.8740234375,19.332763999999997,33.8740234375,22L30.6635744375,22Q30.6635744375,19.991943,29.9128414375,18.2341309Q29.1621094375,16.4763184,27.8315434375,15.1488037Q26.5009764375,13.821289100000001,24.7462154375,13.0705566Q22.9914554375,12.3198242,20.9833984375,12.3198242Q18.9692384375,12.3198242,17.2175293375,13.0705566Q15.4658203375,13.821289100000001,14.1352539375,15.1488037Q12.804687537500001,16.4763184,12.0539550375,18.2341309Q11.3032226375,19.991943,11.3032226375,22Q11.3032226375,24.001953,12.0539550375,25.756714Q12.804687537500001,27.511475,14.1352539375,28.845093Q15.4658203375,30.178711,17.2175293375,30.929443Q18.9692384375,31.680176,20.9833984375,31.680176Q22.4482424375,31.680176,23.7696534375,31.27124Q25.0910644375,30.862305,26.2232664375,30.111572Q27.3554684375,29.36084,28.2526854375,28.317139Q28.7653804375,27.792236,29.4184574375,27.673218Q30.0715334375,27.554199,30.6269534375,28.02417Q31.1396484375,28.45752,31.1610104375,29.125854Q31.1823734375,29.794189,30.6330564375,30.435059Q29.5710444375,31.783936,28.0177004375,32.784912Q26.4643554375,33.785889,24.6455074375,34.338257Q22.8266604375,34.890625,20.9833984375,34.890625ZM34.9421384375,19.467041000000002Q35.4304194375,19.467041000000002,35.6715084375,19.705078Q35.9125974375,19.943115,35.9064944375,20.294067Q35.9003904375,20.645020000000002,35.6318354375,20.999023L32.6166994375,25.039551Q32.3298344375,25.436279,31.9117434375,25.433228Q31.4936524375,25.430176,31.2006834375,25.039551L28.1916504375,20.992919999999998Q27.9353024375,20.638916000000002,27.9261474375,20.291016Q27.9169924375,19.943115,28.1550294375,19.705078Q28.3930664375,19.467041000000002,28.8752444375,19.467041000000002L34.9421384375,19.467041000000002ZM17.9194336375,28.005859Q16.6010742375,28.005859,16.6010742375,26.608154L16.6010742375,22.024414Q16.6010742375,20.846436,17.5532226375,20.687744000000002L17.5532226375,19.424315999999997Q17.5532226375,17.739746099999998,18.490112437500002,16.7052002Q19.4270024375,15.670654299999999,20.9895024375,15.670654299999999Q22.4421384375,15.670654299999999,23.3637694375,16.5281982Q24.2854004375,17.3857422,24.2854004375,18.7468262L24.2854004375,18.9421387Q24.2854004375,19.351074,24.0321044375,19.567749Q23.7788084375,19.784424,23.4492184375,19.784424Q23.1074214375,19.784424,22.8480224375,19.576904Q22.5886234375,19.369385,22.5886234375,18.9665527L22.5886234375,18.7895508Q22.5886234375,18.1242676,22.1430664375,17.7275391Q21.697509437500003,17.3308105,20.9895024375,17.3308105Q20.1777344375,17.3308105,19.7138674375,17.8740234Q19.2500004375,18.4172363,19.2500004375,19.320557L19.2500004375,20.645020000000002L23.919189437500002,20.651123Q25.2375484375,20.651123,25.2375484375,22.048828L25.2375484375,26.608154Q25.2375484375,28.005859,23.919189437500002,28.005859L17.9194336375,28.005859Z" fill="#FFFFFF" fill-opacity="1" style="mix-blend-mode:passthrough"/></g></svg>