<svg xmlns="http://www.w3.org/2000/svg" xmlns:xlink="http://www.w3.org/1999/xlink" fill="none" version="1.1" width="44" height="44" viewBox="0 0 44 44"><defs><clipPath id="master_svg0_74_5708"><rect x="0" y="0" width="44" height="44" rx="0"/></clipPath></defs><g clip-path="url(#master_svg0_74_5708)"><path d="M28.19750975,25.851318609375Q29.55859375,25.851318609375,30.51379375,25.640746609375Q31.46899375,25.430175609375,32.134277749999995,25.198242609375Q32.42114275,25.094482609375,32.65002475,25.030395609375Q32.87890575,24.966308609374998,33.07421875,24.966308609374998Q33.422118749999996,24.966308609374998,33.696777749999995,25.213500609375Q33.97143575,25.460693609375,33.97143575,25.900146609375Q33.97143575,26.064941609375,33.916503750000004,26.302978609375Q33.86157275,26.541015609375,33.73950175,26.840087609375Q32.86669875,28.933593609375,31.18823275,30.566284609375Q29.50976575,32.198974609375,27.27587875,33.132812609375Q25.04199175,34.066650609375,22.49682575,34.066650609375Q19.91503905,34.066650609375,17.65673825,33.096191609375Q15.39843755,32.125732609375,13.68334965,30.410644609375Q11.96826175,28.695556609375,10.99780273,26.434203609375Q10.02734375,24.172851609375,10.02734375,21.591064609375Q10.02734375,19.106933609374998,10.97644043,16.833374009375Q11.92553715,14.559814409375,13.63452145,12.805053709375Q15.34350585,11.050293009375,17.62011715,10.128662109375Q17.88867185,10.024902343375,18.12670895,9.979125976375Q18.36474605,9.933349609375,18.541748050000002,9.933349609375Q18.96899415,9.933349609375,19.20397945,10.189697269375Q19.438964849999998,10.446044919375,19.438964849999998,10.793945309375Q19.438964849999998,10.977050809375001,19.37487795,11.205932609375001Q19.31079105,11.434814409375,19.17651365,11.709472609375Q18.94458005,12.179443409375,18.77368165,12.872192409375Q18.60278325,13.564941409374999,18.50817875,14.349243209375Q18.41357425,15.133544909375,18.41357425,15.896484409374999Q18.41357425,18.240234409375,19.09716795,20.083495609375Q19.78076175,21.926757609375002,21.065551749999997,23.214599609375Q22.35034175,24.502441609374998,24.156982749999997,25.176879609375Q25.96362275,25.851318609375,28.19750975,25.851318609375Z" fill="#FFFFFF" fill-opacity="1" style="mix-blend-mode:passthrough"/></g></svg>