<svg xmlns="http://www.w3.org/2000/svg" xmlns:xlink="http://www.w3.org/1999/xlink" fill="none" version="1.1" width="44" height="44" viewBox="0 0 44 44"><defs><clipPath id="master_svg0_74_5716"><rect x="0" y="0" width="44" height="44" rx="0"/></clipPath></defs><g clip-path="url(#master_svg0_74_5716)"><path d="M15.554931625,33.004638328125Q14.560058595,33.004638328125,14.077880855,32.510254328125Q13.595703125,32.015869328125,13.595703125,31.039306328125L13.595703125,12.954589828125Q13.595703125,11.978027348125,14.087036135,11.486694338125Q14.578369145,10.995361328125,15.554931625,10.995361328125L18.563964825,10.995361328125Q19.528320325,10.995361328125,20.022705125,11.486694338125Q20.517089825,11.978027348125,20.517089825,12.954589828125L20.517089825,31.039306328125Q20.517089825,32.015869328125,20.022705125,32.510254328125Q19.528320325,33.004638328125,18.563964825,33.004638328125L15.554931625,33.004638328125ZM25.442627125,33.004638328125Q24.453857125,33.004638328125,23.965576125,32.510254328125Q23.477294925000002,32.015869328125,23.477294925000002,31.039306328125L23.477294925000002,12.954589828125Q23.477294925000002,11.978027348125,23.971680125,11.486694338125Q24.466064125000003,10.995361328125,25.442627125,10.995361328125L28.445557125,10.995361328125Q29.422119125000002,10.995361328125,29.913452125,11.486694338125Q30.404785125,11.978027348125,30.404785125,12.954589828125L30.404785125,31.039306328125Q30.404785125,32.015869328125,29.913452125,32.510254328125Q29.422119125000002,33.004638328125,28.445557125,33.004638328125L25.442627125,33.004638328125Z" fill="#FFFFFF" fill-opacity="1" style="mix-blend-mode:passthrough"/></g></svg>