<svg xmlns="http://www.w3.org/2000/svg" xmlns:xlink="http://www.w3.org/1999/xlink" fill="none" version="1.1" width="44" height="44" viewBox="0 0 44 44"><defs><clipPath id="master_svg0_74_5724"><rect x="0" y="0" width="44" height="44" rx="0"/></clipPath></defs><g clip-path="url(#master_svg0_74_5724)"><path d="M21.9970703125,34.890625Q19.329834312499997,34.890625,16.9921875125,33.886596999999995Q14.654541012500001,32.882568,12.884521512500001,31.112549Q11.1145019125,29.342529,10.1104736125,27.004883Q9.1064453125,24.667236000000003,9.1064453125,22Q9.1064453125,19.332763999999997,10.1104736125,16.9951172Q11.1145019125,14.657470700000001,12.884521512500001,12.8813477Q14.654541012500001,11.1052246,16.9921875125,10.1072998Q19.329834312499997,9.109375,21.9970703125,9.109375Q24.6704103125,9.109375,27.0080563125,10.1072998Q29.3457033125,11.1052246,31.1157223125,12.8813477Q32.8857423125,14.657470700000001,33.889770312500005,16.9951172Q34.8937993125,19.332763999999997,34.8937993125,22Q34.8937993125,24.667236000000003,33.889770312500005,27.004883Q32.8857423125,29.342529,31.1157223125,31.112549Q29.3457033125,32.882568,27.0080563125,33.886596999999995Q24.6704103125,34.890625,21.9970703125,34.890625ZM21.9970703125,31.680176Q24.0051273125,31.680176,25.7598873125,30.929443Q27.5146483125,30.178711,28.8452153125,28.845093Q30.1757813125,27.511475,30.9295653125,25.756714Q31.6833493125,24.001953,31.6833493125,22Q31.6833493125,19.991943,30.9295653125,18.2341309Q30.1757813125,16.4763184,28.8452153125,15.1488037Q27.5146483125,13.821289100000001,25.7598873125,13.0705566Q24.0051273125,12.3198242,21.9970703125,12.3198242Q19.9951173125,12.3198242,18.2403564125,13.0705566Q16.4855957125,13.821289100000001,15.1519775125,15.1488037Q13.818359412500001,16.4763184,13.0676269125,18.2341309Q12.3168945125,19.991943,12.3168945125,22Q12.3168945125,24.001953,13.0676269125,25.756714Q13.818359412500001,27.511475,15.1519775125,28.845093Q16.4855957125,30.178711,18.2403564125,30.929443Q19.9951173125,31.680176,21.9970703125,31.680176ZM22.0092773125,26.779053Q20.684814312500002,26.779053,19.5922853125,26.13208Q18.4997558125,25.485107,17.8497314125,24.39563Q17.1997070125,23.306152,17.1997070125,21.981689Q17.1997070125,20.657227,17.8497314125,19.564697000000002Q18.4997558125,18.472168,19.5922853125,17.8221436Q20.684814312500002,17.1721191,22.0092773125,17.1721191Q23.333740312499998,17.1721191,24.4201663125,17.8221436Q25.5065913125,18.472168,26.1566163125,19.564697000000002Q26.8066403125,20.657227,26.8066403125,21.981689Q26.8066403125,23.306152,26.1566163125,24.39563Q25.5065913125,25.485107,24.4201663125,26.13208Q23.333740312499998,26.779053,22.0092773125,26.779053Z" fill="#FFFFFF" fill-opacity="1" style="mix-blend-mode:passthrough"/></g></svg>