<svg xmlns="http://www.w3.org/2000/svg" xmlns:xlink="http://www.w3.org/1999/xlink" fill="none" version="1.1" width="44" height="44" viewBox="0 0 44 44"><defs><clipPath id="master_svg0_74_5728"><rect x="0" y="0" width="44" height="44" rx="0"/></clipPath></defs><g clip-path="url(#master_svg0_74_5728)"><path d="M10.919032125,18.351524393749997Q9.298828125,18.351524393749997,9.298828125,16.71248059375L9.298828125,13.704427693749999Q9.298828125,11.56927589375,10.441762924999999,10.43576049375Q11.584696725,9.30224609375,13.732409525,9.30224609375L16.740461325,9.30224609375Q18.379505125,9.30224609375,18.379505125,10.91617009375Q18.379505125,12.542653993750001,16.740461325,12.542653993750001L14.084080725,12.542653993750001Q13.324217825,12.542653993750001,12.931727425,12.91944499375Q12.539236025000001,13.29623699375,12.539236025000001,14.100059493749999L12.539236025000001,16.71248059375Q12.539236025000001,18.351524393749997,10.919032125,18.351524393749997ZM33.080658125,18.351524393749997Q31.460453125,18.351524393749997,31.460453125,16.71248059375L31.460453125,14.100059493749999Q31.460453125,13.29623699375,31.061682125,12.91944499375Q30.662912125,12.542653993750001,29.909328125,12.542653993750001L27.252947125,12.542653993750001Q25.620184125,12.542653993750001,25.620184125,10.91617009375Q25.620184125,9.30224609375,27.252947125,9.30224609375L30.267280125,9.30224609375Q32.421268125,9.30224609375,33.561066124999996,10.43576049375Q34.700859125,11.56927589375,34.700859125,13.704427693749999L34.700859125,16.71248059375Q34.700859125,18.351524393749997,33.080658125,18.351524393749997ZM13.732409525,34.69800209375Q11.584696725,34.69800209375,10.441762924999999,33.56134409375Q9.298828125,32.42469009375,9.298828125,30.28953709375L9.298828125,27.28148609375Q9.298828125,25.64244309375,10.919032125,25.64244309375Q12.539236025000001,25.64244309375,12.539236025000001,27.28148609375L12.539236025000001,29.89390709375Q12.539236025000001,30.69772909375,12.931727425,31.07766009375Q13.324217825,31.45759209375,14.084080725,31.45759209375L16.740461325,31.45759209375Q18.379505125,31.45759209375,18.379505125,33.07779709375Q18.379505125,34.69800209375,16.740461325,34.69800209375L13.732409525,34.69800209375ZM27.252947125,34.69800209375Q25.620184125,34.69800209375,25.620184125,33.07779709375Q25.620184125,31.45759209375,27.252947125,31.45759209375L29.909328125,31.45759209375Q30.662912125,31.45759209375,31.061682125,31.07766009375Q31.460453125,30.69772909375,31.460453125,29.89390709375L31.460453125,27.28148609375Q31.460453125,25.64244309375,33.080658125,25.64244309375Q34.700859125,25.64244309375,34.700859125,27.28148609375L34.700859125,30.28953709375Q34.700859125,32.42469009375,33.561066124999996,33.56134409375Q32.421268125,34.69800209375,30.267280125,34.69800209375L27.252947125,34.69800209375Z" fill="#FFFFFF" fill-opacity="1" style="mix-blend-mode:passthrough"/><path d="M17.9102744875,25.551042537500003L26.0928901875,25.551042537500003Q26.3826731875,25.551042537500003,26.5695091875,25.3731041375Q26.7563461875,25.1951656375,26.7563461875,24.8850441375L26.7563461875,23.8733387375L24.740560487499998,22.0100708375Q24.5702457875,21.8499279375,24.3668880875,21.7723961375Q24.1635303875,21.694868137500002,23.962715187500002,21.694868137500002Q23.5254954875,21.694868137500002,23.174703587499998,22.0049877375L20.8106670875,24.1097431375L19.8599681875,23.2556381375Q19.5295104875,22.9556865375,19.1482143875,22.9556865375Q18.9651927875,22.9556865375,18.8025073875,23.0281334375Q18.6398200875,23.1005783375,18.4745921875,23.2454719375L17.2442760875,24.3232689375L17.2442760875,24.8825035375Q17.2442760875,25.1926250375,17.4222144875,25.3718338375Q17.6001529875,25.551042537500003,17.9102744875,25.551042537500003ZM20.1548366875,22.0558261375Q20.5056304875,22.0558261375,20.7966861875,21.8804302375Q21.087741887500002,21.7050361375,21.2631377875,21.4139785375Q21.4385337875,21.1229229375,21.4385337875,20.7670459375Q21.4385337875,20.4162540375,21.2631377875,20.1239261375Q21.087741887500002,19.8316002375,20.7966861875,19.6562042375Q20.5056304875,19.4808063375,20.1548366875,19.4808063375Q19.8015021875,19.4808063375,19.5091743875,19.6562042375Q19.2168483875,19.8316002375,19.0427226875,20.1239261375Q18.8685989875,20.4162540375,18.8685989875,20.7670459375Q18.8685989875,21.1229229375,19.0427226875,21.4139785375Q19.2168483875,21.7050361375,19.5091743875,21.8804302375Q19.8015021875,22.0558261375,20.1548366875,22.0558261375ZM17.7272510875,26.8601589375Q16.8578968075,26.8601589375,16.3952560375,26.4000625375Q15.9326171875,25.9399643375,15.9326171875,25.0782356375L15.9326171875,18.9241142375Q15.9326171875,18.0573005675,16.3952560375,17.5984745075Q16.8578968075,17.1396484375,17.7272510875,17.1396484375L26.2733711875,17.1396484375Q27.1452671875,17.1396484375,27.6066361875,17.5997467075Q28.0680041875,18.0598430675,28.0680041875,18.9241142375L28.0680041875,25.0782356375Q28.0680041875,25.9399643375,27.6066361875,26.4000625375Q27.1452671875,26.8601589375,26.2733711875,26.8601589375L17.7272510875,26.8601589375Z" fill="#FFFFFF" fill-opacity="1" style="mix-blend-mode:passthrough"/></g></svg>