<svg xmlns="http://www.w3.org/2000/svg" xmlns:xlink="http://www.w3.org/1999/xlink" fill="none" version="1.1" width="44" height="44" viewBox="0 0 44 44"><defs><clipPath id="master_svg0_74_5775"><rect x="0" y="0" width="44" height="44" rx="0"/></clipPath></defs><g clip-path="url(#master_svg0_74_5775)"><path d="M21.9938964375,28.662109765625Q20.6206054375,28.662109765625,19.4121093375,28.143310765625Q18.2036132375,27.624511765625,17.2880859375,26.708984765625Q16.3725586375,25.793456765625002,15.8537597675,24.584960965625Q15.3349609375,23.376464865625,15.3349609375,22.003173865625Q15.3349609375,20.617675765625002,15.8537597675,19.415283165625Q16.3725586375,18.212890665625,17.2880859375,17.297363265625002Q18.2036132375,16.381835965625,19.4121093375,15.859985355625Q20.6206054375,15.338134765625,21.9938964375,15.338134765625Q23.3732910375,15.338134765625,24.5787353375,15.859985355625Q25.7841799375,16.381835965625,26.6997069375,17.297363265625002Q27.6152339375,18.212890665625,28.134032937500002,19.415283165625Q28.6528319375,20.617675765625002,28.6528319375,22.003173865625Q28.6528319375,23.376464865625,28.134032937500002,24.584960965625Q27.6152339375,25.793456765625002,26.6997069375,26.708984765625Q25.7841799375,27.624511765625,24.5787353375,28.143310765625Q23.3732910375,28.662109765625,21.9938964375,28.662109765625Z" fill="#FFCC00" fill-opacity="1" style="mix-blend-mode:passthrough"/><path d="M21.9999995625,13.159179675Q21.3835445625,13.159179675,20.941039562500002,12.713623075000001Q20.498535562500003,12.268066375,20.498535562500003,11.651611375L20.4980465625,8.271240275Q20.4980465625,7.660888675,20.9414065625,7.212402345Q21.3839115625,6.76379394531,21.9999995625,6.763671875Q22.6103515625,6.763671875,23.0556635625,7.212402345Q23.5012205625,7.6610107450000005,23.5019535625,8.271240275L23.5014645625,11.651611375Q23.5014645625,12.268066375,23.0559085625,12.713623075000001Q22.6103515625,13.159179675,21.9999995625,13.159179675ZM28.2561035625,15.789794875Q27.8227535625,15.356445275,27.8166505625,14.724731474999999Q27.8105465625,14.093017575000001,28.2377925625,13.665771475L30.9287105625,10.962890675Q31.3559565625,10.535644575,31.9873045625,10.526367175Q32.6190185625,10.517211875000001,33.0468745625,10.944580075000001Q33.4802245625,11.377929675,33.4863285625,12.015624975Q33.4924315625,12.653442375000001,33.0644535625,13.074707075L30.3801265625,15.771484375Q29.9528805625,16.210937475,29.3181155625,16.213989275Q28.6833495625,16.217040975,28.2561035625,15.789794875ZM30.8439945625,22.003173875Q30.8439945625,21.386718875,31.2895505625,20.941161875Q31.7351075625,20.495605875000003,32.3515625625,20.495605875000003L35.7324215625,20.495605875000003Q36.3427735625,20.495605875000003,36.7880855625,20.941161875Q37.233642562499995,21.386718875,37.2333985625,22.003173875Q37.2333985625,22.613525875,36.7880855625,23.056151875Q36.342529562500005,23.498656875,35.7324215625,23.498534875L32.3515625625,23.498534875Q31.7351075625,23.498534875,31.2895505625,23.056029875Q30.8439945625,22.613525875,30.8439945625,22.003173875ZM28.2377925625,28.240966875Q28.6711425625,27.813720875,29.3028565625,27.807616875Q29.9345705625,27.801513875,30.3618165625,28.222655875L33.0585935625,30.913329875Q33.4919435625,31.340575875,33.4980465625,31.972167875Q33.5041505625,32.603881875,33.0830075625,33.031249875Q32.6435545625,33.458495875,32.0117185625,33.467773875Q31.3800045625,33.476928875,30.9531245625,33.061767875L28.2561035625,30.358886875Q27.8227535625,29.931640875,27.8166505625,29.302978875Q27.8105465625,28.674316875,28.2377925625,28.240966875ZM21.9999995625,30.847167875Q22.6103515625,30.847167875,23.0559085625,31.289672875Q23.5014645625,31.732177875,23.5014645625,32.342528875L23.5019535625,35.729003875000004Q23.5019535625,36.339355874999995,23.0556635625,36.788085875Q22.610107562499998,37.236693875,21.9999995625,37.236571874999996Q21.3835445625,37.236571874999996,20.9414065625,36.788085875Q20.498901562500002,36.339477875,20.4980465625,35.729003875000004L20.498535562500003,32.342528875Q20.498535562500003,31.732177875,20.941039562500002,31.289672875Q21.3835445625,30.847167875,21.9999995625,30.847167875ZM15.7622070625,28.240966875Q16.1772460625,28.674316875,16.171142562500002,29.302978875Q16.1650390625,29.931640875,15.7316894625,30.358886875L13.041015662500001,33.055663875Q12.6137695625,33.470702875,11.978515662500001,33.461425875Q11.343749962499999,33.452270874999996,10.9042968625,33.025146875000004Q10.4892577625,32.591796875,10.4960937625,31.959960875Q10.502197262500001,31.328246875,10.9355468625,30.907226875L13.6259765625,28.222655875Q14.0532226625,27.801513875,14.6879882625,27.807616875Q15.3227538625,27.813720875,15.7622070625,28.240966875ZM13.156005862499999,22.003173875Q13.156005862499999,22.613525875,12.707397462500001,23.056029875Q12.2587890625,23.498534875,11.6423339625,23.498534875L8.2617187625,23.498534875Q7.6574707024999995,23.498534875,7.2119140625,23.056151875Q6.76635742188,22.613647874999998,6.7666015625,22.003173875Q6.7666015625,21.386718875,7.2119140625,20.941161875Q7.6574707024999995,20.495605875000003,8.2617187625,20.495605875000003L11.6423339625,20.495605875000003Q12.2587890625,20.495605875000003,12.707397462500001,20.941161875Q13.156005862499999,21.386718875,13.156005862499999,22.003173875ZM15.7316894625,15.789794875Q15.3044433625,16.217040975,14.672729462500001,16.210937475Q14.041015662500001,16.204833975,13.6137695625,15.771484375L10.929687462499999,13.068603475Q10.5085449625,12.653564475,10.5136718625,12.015624975Q10.519775362499999,11.377807575,10.953124962499999,10.944580075000001Q11.3803710625,10.517333975,12.015624962499999,10.529540975Q12.650390662500001,10.541748075000001,13.0712890625,10.962890675L15.7622070625,13.665771475Q16.1772460625,14.080810575000001,16.171142562500002,14.721679675Q16.1650390625,15.362548875,15.7316894625,15.789794875Z" fill="#FFCC00" fill-opacity="0.4000000059604645" style="mix-blend-mode:passthrough"/></g></svg>