<svg xmlns="http://www.w3.org/2000/svg" xmlns:xlink="http://www.w3.org/1999/xlink" fill="none" version="1.1" width="44" height="44" viewBox="0 0 44 44"><defs><clipPath id="master_svg0_74_5808"><rect x="0" y="0" width="44" height="44" rx="0"/></clipPath></defs><g clip-path="url(#master_svg0_74_5808)"><path d="M22.0012760625,32.546875Q21.7449280625,32.546875,21.4885810625,32.403442Q21.2322330625,32.26001,20.8477120625,31.893799L17.8142640625,28.970215Q17.6250550625,28.787109,17.5731750625,28.555176Q17.521295062500002,28.323242,17.6494690625,28.12793Q18.3574770625,27.181885,19.5232490625,26.574585Q20.6890200625,25.967285,22.0012760625,25.967285Q23.289118062500002,25.967285,24.4243720625,26.541016Q25.5596260625,27.114746,26.2615300625,27.999756Q26.4507390625,28.219482,26.4202210625,28.497192Q26.3897040625,28.774902,26.1882880625,28.970215L23.1548400625,31.893799Q22.7703190625,32.266113000000004,22.513971062499998,32.406493999999995Q22.2576240625,32.546875,22.0012760625,32.546875ZM14.5916080625,25.607177999999998L12.6262760625,23.715088Q12.4187564625,23.513672,12.403497662500001,23.263427999999998Q12.3882388625,23.013184000000003,12.5713443625,22.799561Q13.572320962500001,21.615479,15.0402164625,20.7182617Q16.5081119625,19.8210449,18.2903380625,19.3144531Q20.0725650625,18.8078613,21.9951720625,18.8078613Q23.9177800625,18.8078613,25.7000060625,19.3144531Q27.4822330625,19.8210449,28.9531800625,20.7182617Q30.4241280625,21.615479,31.4190010625,22.799561Q31.6021060625,23.013184000000003,31.5837950625,23.266479Q31.5654850625,23.519775,31.3640690625,23.715088L29.3987370625,25.601074Q29.1423890625,25.839111000000003,28.8463690625,25.842163Q28.5503480625,25.845215,28.3245180625,25.601074Q27.1526430625,24.368164,25.4711250625,23.605225Q23.7896060625,22.842285,21.9951720625,22.848388999999997Q20.2251530625,22.842285,18.5558410625,23.586914Q16.8865299625,24.331543,15.7268619625,25.552246Q15.4827213625,25.814697000000002,15.1653385625,25.833008Q14.8479556625,25.851318,14.5916080625,25.607177999999998ZM9.4280338625,20.553466800000002L7.6763243725,18.7651367Q7.4749088285,18.5515137,7.46270179749,18.2860107Q7.4504942895,18.0205078,7.6274967225,17.8129883Q9.1411685625,15.9331055,11.4177799625,14.495727500000001Q13.6943912625,13.0583496,16.4135074625,12.2557373Q19.1326240625,11.453125,21.9951720625,11.453125Q24.8577210625,11.453125,27.5768370625,12.25878906Q30.2959540625,13.0644531,32.572563062499995,14.498779299999999Q34.8491740625,15.9331055,36.3628460625,17.8129883Q36.5459560625,18.0205078,36.5367970625,18.2860107Q36.527641062499995,18.5515137,36.3140180625,18.7651367L34.5623090625,20.5229492Q34.3303790625,20.7609863,34.0190960625,20.770141600000002Q33.7078210625,20.7792969,33.4819910625,20.553466800000002Q31.2114810625,18.130371099999998,28.2848450625,16.8760986Q25.3582100625,15.621826200000001,21.9951720625,15.621826200000001Q18.656549062499998,15.621826200000001,15.7390689625,16.8730469Q12.8215885625,18.1242676,10.5388736625,20.5351562Q10.3069400625,20.7792969,9.9865054625,20.7884521Q9.666070962500001,20.7976074,9.4280338625,20.553466800000002Z" fill="#FFFFFF" fill-opacity="1" style="mix-blend-mode:passthrough"/></g></svg>