<svg xmlns="http://www.w3.org/2000/svg" xmlns:xlink="http://www.w3.org/1999/xlink" fill="none" version="1.1" width="44" height="44" viewBox="0 0 44 44"><defs><clipPath id="master_svg0_74_5693"><rect x="0" y="0" width="44" height="44" rx="0"/></clipPath></defs><g clip-path="url(#master_svg0_74_5693)"><path d="M21.0030518125,34.00524890625Q20.4097898125,34.00524890625,19.9895628125,33.67016590625Q19.5693359125,33.33508290625,19.4320068125,32.75830090625L18.9046631125,30.56652790625Q18.6904297125,30.48962390625,18.4816894125,30.40722690625Q18.272949212500002,30.32482890625,18.0861816125,30.23693890625L16.1800537125,31.41247590625Q15.685668912499999,31.71459990625,15.1418457125,31.66516090625Q14.5980224125,31.61572290625,14.1860351125,31.20373490625L12.790771512500001,29.80847190625Q12.3787842125,29.39648390625,12.3293457125,28.83618190625Q12.2799072125,28.27587890625,12.5930176125,27.78698690625L13.7520752125,25.891845906249998Q13.6696777125,25.69958490625,13.587280312499999,25.50457790625Q13.5048828125,25.309569906249997,13.4444580125,25.10632290625L11.2362060125,24.578979906249998Q10.6539306625,24.44714390625,10.3215942425,24.024169906250002Q9.9892578125,23.60119590625,9.9892578125,23.00793490625L9.9892578125,21.05786090625Q9.9892578125,20.47558590625,10.3215942425,20.049865906249998Q10.6539306625,19.624145506250002,11.2362060125,19.49230960625L13.422485312500001,18.97045900625Q13.488403312500001,18.74523930625,13.5735474125,18.544738806250002Q13.6586914125,18.34423830625,13.7355957125,18.16845700625L12.5710449125,16.229370106250002Q12.2579346125,15.71850590625,12.3073730125,15.18292240625Q12.3568115125,14.647338906249999,12.7742920125,14.23535160625L14.191528312500001,12.83459470625Q14.5980224125,12.43359370625,15.1088867125,12.37591550625Q15.6197510125,12.31823730625,16.119628912499998,12.59289550625L18.0751953125,13.79589840625Q18.2619629125,13.70251460625,18.4761963125,13.61462400625Q18.6904297125,13.526733406249999,18.9046631125,13.44982910625L19.4320068125,11.25256350625Q19.574829112499998,10.67578124625,19.9923098125,10.33520507625Q20.4097898125,9.99462890625,21.0030518125,9.99462890625L22.9970698125,9.99462890625Q23.5903318125,9.99462890625,24.0078128125,10.33520507625Q24.4252928125,10.67578124625,24.5681148125,11.24707030625L25.0954588125,13.47180180625Q25.3206788125,13.54870600625,25.5239258125,13.63110350625Q25.7271728125,13.71350100625,25.9084468125,13.81237790625L27.8804928125,12.59289550625Q28.3693848125,12.31823730625,28.8775028125,12.38690180625Q29.3856198125,12.45556640625,29.7976078125,12.823608406249999L31.2258298125,14.23535160625Q31.6488038125,14.647338906249999,31.6954958125,15.18292240625Q31.7421878125,15.71850590625,31.4345698125,16.229370106250002L30.2590328125,18.16845700625Q30.3414308125,18.34423830625,30.4238278125,18.544738806250002Q30.5062258125,18.74523930625,30.5831298125,18.97045900625L32.769408812500004,19.49230960625Q33.3406978125,19.624145506250002,33.6757808125,20.049865906249998Q34.0108638125,20.47558590625,34.0108638125,21.05786090625L34.0108638125,23.00793490625Q34.0108638125,23.60119590625,33.6757808125,24.024169906250002Q33.3406978125,24.44714390625,32.769408812500004,24.578979906249998L30.5556638125,25.10632290625Q30.4897458125,25.309569906249997,30.4128418125,25.50457790625Q30.3359378125,25.69958490625,30.2425538125,25.891845906249998L31.4071048125,27.78698690625Q31.7202148125,28.27587890625,31.6735228125,28.83618190625Q31.6268308125,29.39648390625,31.2148438125,29.80847190625L29.8140868125,31.20373490625Q29.4020998125,31.61572290625,28.8582768125,31.66516090625Q28.3144528125,31.71459990625,27.8255618125,31.41247590625L25.9084468125,30.23693890625Q25.7216798125,30.32482890625,25.5156858125,30.40722690625Q25.3096928125,30.48962390625,25.089965812499997,30.56652790625L24.5681148125,32.75830090625Q24.430785812499998,33.33508290625,24.0105588125,33.67016590625Q23.5903318125,34.00524890625,22.9970698125,34.00524890625L21.0030518125,34.00524890625ZM22.002807812500002,25.787475906250002Q23.0465088125,25.787475906250002,23.9034428125,25.27661090625Q24.7603758125,24.76574690625,25.2712398125,23.90606690625Q25.782104812500002,23.04638690625,25.782104812500002,22.00268590625Q25.782104812500002,20.958983906249998,25.2712398125,20.09930390625Q24.7603758125,19.23962400625,23.9034428125,18.72875980625Q23.0465088125,18.217895506250002,22.002807812500002,18.217895506250002Q20.953612812499998,18.217895506250002,20.0966798125,18.72875980625Q19.2397461125,19.23962400625,18.7288818125,20.09930390625Q18.2180176125,20.958983906249998,18.2180176125,22.00268590625Q18.2180176125,23.04638690625,18.7288818125,23.90606690625Q19.2397461125,24.76574690625,20.0966798125,25.27661090625Q20.953612812499998,25.787475906250002,22.002807812500002,25.787475906250002Z" fill="#FFFFFF" fill-opacity="1" style="mix-blend-mode:passthrough"/></g></svg>