<svg xmlns="http://www.w3.org/2000/svg" xmlns:xlink="http://www.w3.org/1999/xlink" fill="none" version="1.1" width="44" height="44" viewBox="0 0 44 44"><defs><clipPath id="master_svg0_74_5754"><rect x="0" y="0" width="44" height="44" rx="0"/></clipPath></defs><g clip-path="url(#master_svg0_74_5754)"><path d="M17.44677725,33.17932196148682Q16.89746125,33.17932196148682,16.430542250000002,32.956543961486815Q15.96362325,32.73376596148682,15.43872025,32.239380961486816L10.494873049999999,27.594604961486816Q10.39721675,27.515259961486816,10.250732450000001,27.515259961486816L6.85717775,27.515259961486816Q5.34960935,27.515259961486816,4.54394531,26.679076961486814Q3.73828125,25.842895961486818,3.73828125,24.255980961486816L3.73828125,19.73938176148682Q3.73828125,18.158569361486816,4.54394531,17.322389561486816Q5.34960935,16.48620606148682,6.85717775,16.48620606148682L10.25683595,16.48620606148682Q10.38500975,16.48620606148682,10.50097655,16.388551761486816L15.43872025,11.786499981486816Q16.00024425,11.255494121486816,16.45190425,11.029664041486816Q16.903564250000002,10.803833961486816,17.42846725,10.803833961486816Q18.26464825,10.803833961486816,18.813965250000003,11.371460911486816Q19.36328125,11.939087861486817,19.36328125,12.756958961486816L19.36328125,31.268921961486818Q19.36328125,32.080688961486814,18.81701625,32.630005961486816Q18.27075225,33.17932196148682,17.44677725,33.17932196148682Z" fill="#00B0EC" fill-opacity="1" style="mix-blend-mode:passthrough"/><path d="M23.67846679918457,27.77771027734375Q23.11083983918457,27.41760227734375,23.01318359418457,26.78283727734375Q22.91552734418457,26.14807127734375,23.37939452918457,25.38513227734375Q23.83715819918457,24.67712627734375,24.08740233918457,23.80126927734375Q24.33764643918457,22.925417277343747,24.33764643918457,21.97937227734375Q24.33764643918457,21.03332727734375,24.09045413918457,20.15136927734375Q23.84326171918457,19.26941127734375,23.37939452918457,18.57361027734375Q22.90332031218457,17.81677247734375,23.007080078184572,17.17590527734375Q23.11083983918457,16.53503607734375,23.67846679918457,16.18103027734375Q24.19726563918457,15.85144137734375,24.77404783918457,15.961304677343751Q25.350830039184572,16.07116887734375,25.68652343918457,16.54113957734375Q26.47998043918457,17.63366887734375,26.92553713918457,19.04052737734375Q27.37109373918457,20.44738727734375,27.37109373918457,21.97937227734375Q27.37109373918457,23.51135227734375,26.92553713918457,24.91516327734375Q26.47998043918457,26.31896927734375,25.68652343918457,27.40539527734375Q25.350830039184572,27.88757327734375,24.77404783918457,27.99133327734375Q24.19726563918457,28.09509227734375,23.67846679918457,27.77771027734375ZM29.189941439184572,31.17736827734375Q28.59790043918457,30.82336427734375,28.518554639184572,30.17639127734375Q28.43920893918457,29.52941927734375,28.842041039184572,28.87634227734375Q29.76977543918457,27.42980927734375,30.285522439184568,25.65673827734375Q30.80126953918457,23.88366927734375,30.80126953918457,21.97937227734375Q30.80126953918457,20.06896927734375,30.28857423918457,18.295898477343748Q29.775878939184572,16.52282717734375,28.842041039184572,15.07629487734375Q28.43310543918457,14.42932227734375,28.51550293918457,13.779297877343751Q28.59790043918457,13.12927337734375,29.189941439184572,12.78137297734375Q29.73315433918457,12.457886677343751,30.31909183918457,12.57995697734375Q30.90502933918457,12.702027277343749,31.259033239184568,13.239136677343751Q32.49194333918457,15.045777277343749,33.15722703918457,17.30407717734375Q33.82251003918457,19.56238027734375,33.82251003918457,21.97937227734375Q33.82251003918457,24.39636427734375,33.15417503918457,26.64855927734375Q32.48583983918457,28.90075727734375,31.259033239184568,30.71350127734375Q30.90502933918457,31.25061027734375,30.31909183918457,31.37268027734375Q29.73315433918457,31.49475127734375,29.189941439184572,31.17736827734375ZM34.67700203918457,34.601440277343755Q34.10327103918457,34.253540277343745,34.00866703918457,33.61267127734375Q33.91406203918457,32.97180127734375,34.30468703918457,32.33703627734375Q35.220215039184566,30.87829627734375,35.87634303918457,29.21813927734375Q36.53247103918457,27.55798327734375,36.886475039184575,25.74218727734375Q37.240478039184566,23.92639127734375,37.240478039184566,21.99768027734375Q37.240478039184566,20.06286827734375,36.886475039184575,18.25012207734375Q36.53247103918457,16.43737797734375,35.87634303918457,14.78332617734375Q35.220215039184566,13.12927337734375,34.30468703918457,11.664429677343751Q33.91406203918457,11.02356047734375,34.00866703918457,10.38574317734375Q34.10327103918457,9.74792575734375,34.67700203918457,9.40002536734375Q35.220215039184566,9.07043552434375,35.82751503918457,9.21081638334375Q36.43481403918457,9.35119724734375,36.782715039184566,9.91882419734375Q37.86303703918457,11.63391207734375,38.64428703918457,13.57177827734375Q39.42553703918457,15.50964447734375,39.843628039184566,17.62756537734375Q40.26171903918457,19.74548327734375,40.26171903918457,21.99768027734375Q40.26171903918457,24.25598127734375,39.84668003918457,26.37390127734375Q39.43164103918457,28.49182127734375,38.65344203918457,30.42968727734375Q37.87524403918457,32.367553277343745,36.782715039184566,34.082641277343754Q36.43481403918457,34.644165277343745,35.82751503918457,34.78759727734375Q35.220215039184566,34.93103027734375,34.67700203918457,34.601440277343755Z" fill="#00B0EC" fill-opacity="0.4000000059604645" style="mix-blend-mode:passthrough"/></g></svg>